<mxfile host="Electron" agent="Mozilla/5.0 (Windows NT 10.0; Win64; x64) AppleWebKit/537.36 (KHTML, like Gecko) draw.io/26.0.4 Chrome/128.0.6613.186 Electron/32.2.5 Safari/537.36" version="26.0.4">
  <diagram name="Page-1" id="rGTvLW80qFOWJHyZyEPE">
    <mxGraphModel dx="3745" dy="1797" grid="1" gridSize="10" guides="1" tooltips="1" connect="1" arrows="1" fold="1" page="1" pageScale="1" pageWidth="850" pageHeight="1100" math="0" shadow="0">
      <root>
        <mxCell id="0" />
        <mxCell id="1" parent="0" />
        <mxCell id="N1wmeKVcwQzZcCEJc6FH-1" value="&lt;span style=&quot;padding: 0px 2px;&quot;&gt;&lt;span style=&quot;font-family: Consolas; font-size: 10pt; white-space: pre;&quot;&gt;&lt;font style=&quot;color: rgb(204, 204, 204);&quot;&gt;&lt;span&gt;&lt;/span&gt;&lt;span&gt;Node&lt;/span&gt;&lt;span&gt;&amp;lt;&lt;/span&gt;&lt;span&gt;T&lt;/span&gt;&lt;span&gt;&amp;gt;&lt;/span&gt;&lt;/font&gt;&lt;/span&gt;&lt;/span&gt;" style="swimlane;fontStyle=1;align=center;verticalAlign=top;childLayout=stackLayout;horizontal=1;startSize=26;horizontalStack=0;resizeParent=1;resizeParentMax=0;resizeLast=0;collapsible=1;marginBottom=0;whiteSpace=wrap;html=1;" parent="1" vertex="1">
          <mxGeometry x="560" y="-700" width="160" height="104" as="geometry" />
        </mxCell>
        <mxCell id="N1wmeKVcwQzZcCEJc6FH-2" value="&lt;div style=&quot;padding: 0px 2px;&quot;&gt;&lt;div style=&quot;font-family: Consolas; font-size: 10pt; white-space: pre;&quot;&gt;&lt;p style=&quot;margin: 0px;&quot;&gt;&lt;span style=&quot;background-color: light-dark(#ffffff, var(--ge-dark-color, #121212));&quot;&gt;&lt;font style=&quot;color: rgb(204, 204, 204);&quot;&gt;# data: T&lt;/font&gt;&lt;/span&gt;&lt;/p&gt;&lt;p style=&quot;margin: 0px;&quot;&gt;&lt;span style=&quot;background-color: light-dark(#ffffff, var(--ge-dark-color, #121212));&quot;&gt;&lt;font style=&quot;color: rgb(204, 204, 204);&quot;&gt;# next: &lt;/font&gt;&lt;/span&gt;&lt;span style=&quot;background-color: rgb(18, 18, 18); color: rgb(204, 204, 204); font-size: 13.3333px;&quot;&gt;Node&amp;lt;T&amp;gt;&lt;/span&gt;&lt;/p&gt;&lt;/div&gt;&lt;/div&gt;" style="text;strokeColor=none;fillColor=none;align=left;verticalAlign=top;spacingLeft=4;spacingRight=4;overflow=hidden;rotatable=0;points=[[0,0.5],[1,0.5]];portConstraint=eastwest;whiteSpace=wrap;html=1;" parent="N1wmeKVcwQzZcCEJc6FH-1" vertex="1">
          <mxGeometry y="26" width="160" height="44" as="geometry" />
        </mxCell>
        <mxCell id="N1wmeKVcwQzZcCEJc6FH-3" value="" style="line;strokeWidth=1;fillColor=none;align=left;verticalAlign=middle;spacingTop=-1;spacingLeft=3;spacingRight=3;rotatable=0;labelPosition=right;points=[];portConstraint=eastwest;strokeColor=inherit;" parent="N1wmeKVcwQzZcCEJc6FH-1" vertex="1">
          <mxGeometry y="70" width="160" height="8" as="geometry" />
        </mxCell>
        <mxCell id="N1wmeKVcwQzZcCEJc6FH-4" value="&lt;span style=&quot;padding: 0px 2px;&quot;&gt;&lt;span style=&quot;font-family: Consolas; font-size: 10pt; white-space: pre;&quot;&gt;&lt;font style=&quot;color: rgb(204, 204, 204);&quot;&gt;+ Node(data: &lt;/font&gt;&lt;/span&gt;&lt;span style=&quot;color: rgb(204, 204, 204); font-family: Consolas; font-size: 13.3333px; white-space: pre;&quot;&gt;T&lt;/span&gt;&lt;span style=&quot;font-family: Consolas; font-size: 10pt; white-space: pre;&quot;&gt;&lt;font style=&quot;color: rgb(204, 204, 204);&quot;&gt;)&lt;/font&gt;&lt;/span&gt;&lt;/span&gt;" style="text;strokeColor=none;fillColor=none;align=left;verticalAlign=top;spacingLeft=4;spacingRight=4;overflow=hidden;rotatable=0;points=[[0,0.5],[1,0.5]];portConstraint=eastwest;whiteSpace=wrap;html=1;" parent="N1wmeKVcwQzZcCEJc6FH-1" vertex="1">
          <mxGeometry y="78" width="160" height="26" as="geometry" />
        </mxCell>
        <mxCell id="N1wmeKVcwQzZcCEJc6FH-7" value="&lt;span style=&quot;padding: 0px 2px;&quot;&gt;&lt;span style=&quot;font-family: Consolas; font-size: 10pt; white-space: pre;&quot;&gt;&lt;font&gt;&lt;font style=&quot;color: rgb(255, 255, 255);&quot;&gt;&lt;span style=&quot;color: rgb(217, 232, 247);&quot;&gt;&lt;/span&gt;&lt;/font&gt;&lt;span style=&quot;color: rgb(18, 144, 195);&quot;&gt;&lt;font style=&quot;color: rgb(255, 255, 255);&quot;&gt;LinkedList&lt;/font&gt;&lt;/span&gt;&lt;span style=&quot;color: rgb(230, 230, 250);&quot;&gt;&amp;lt;&lt;/span&gt;&lt;span style=&quot;color: rgb(191, 164, 164);&quot;&gt;T&lt;/span&gt;&lt;span style=&quot;color: rgb(230, 230, 250);&quot;&gt;&amp;gt;&lt;/span&gt;&lt;/font&gt;&lt;/span&gt;&lt;/span&gt;" style="swimlane;fontStyle=1;align=center;verticalAlign=top;childLayout=stackLayout;horizontal=1;startSize=26;horizontalStack=0;resizeParent=1;resizeParentMax=0;resizeLast=0;collapsible=1;marginBottom=0;whiteSpace=wrap;html=1;" parent="1" vertex="1">
          <mxGeometry x="550" y="-492" width="290" height="190" as="geometry" />
        </mxCell>
        <mxCell id="N1wmeKVcwQzZcCEJc6FH-8" value="&lt;div style=&quot;padding: 0px 2px;&quot;&gt;&lt;div style=&quot;&quot;&gt;&lt;p style=&quot;margin: 0px;&quot;&gt;&lt;font face=&quot;Consolas&quot; color=&quot;#cccccc&quot;&gt;&lt;span style=&quot;font-size: 13.3333px; white-space: pre;&quot;&gt;- head: Node&amp;lt;T&amp;gt; &lt;br&gt;- size: int&lt;/span&gt;&lt;/font&gt;&lt;br&gt;&lt;/p&gt;&lt;/div&gt;&lt;/div&gt;" style="text;strokeColor=none;fillColor=none;align=left;verticalAlign=top;spacingLeft=4;spacingRight=4;overflow=hidden;rotatable=0;points=[[0,0.5],[1,0.5]];portConstraint=eastwest;whiteSpace=wrap;html=1;" parent="N1wmeKVcwQzZcCEJc6FH-7" vertex="1">
          <mxGeometry y="26" width="290" height="44" as="geometry" />
        </mxCell>
        <mxCell id="N1wmeKVcwQzZcCEJc6FH-9" value="" style="line;strokeWidth=1;fillColor=none;align=left;verticalAlign=middle;spacingTop=-1;spacingLeft=3;spacingRight=3;rotatable=0;labelPosition=right;points=[];portConstraint=eastwest;strokeColor=inherit;" parent="N1wmeKVcwQzZcCEJc6FH-7" vertex="1">
          <mxGeometry y="70" width="290" height="8" as="geometry" />
        </mxCell>
        <mxCell id="N1wmeKVcwQzZcCEJc6FH-10" value="&lt;div&gt;&lt;span style=&quot;padding: 0px 2px;&quot;&gt;&lt;span style=&quot;background-color: light-dark(#ffffff, var(--ge-dark-color, #121212)); color: rgb(249, 250, 244);&quot;&gt;&lt;span style=&quot;background-color: light-dark(#ffffff, var(--ge-dark-color, #121212)); color: rgb(249, 250, 244);&quot;&gt;&lt;span style=&quot;background-color: light-dark(#ffffff, var(--ge-dark-color, #121212)); color: rgb(249, 250, 244);&quot;&gt;&lt;span style=&quot;background-color: light-dark(#ffffff, var(--ge-dark-color, #121212)); color: rgb(249, 250, 244);&quot;&gt;&lt;font style=&quot;color: rgb(249, 250, 244);&quot; face=&quot;Consolas&quot;&gt;&lt;span style=&quot;font-size: 13.3333px; white-space: pre;&quot;&gt;+ add(data: T): void&lt;br/&gt;+ addFirst(data: T): void&lt;br/&gt;+ addAt(data: T , index: int): void&lt;br/&gt;+ get(index: int): T&lt;br/&gt;+ remove(index: int): void&lt;br/&gt;+ size(): int&lt;/span&gt;&lt;/font&gt;&lt;br&gt;&lt;/span&gt;&lt;/span&gt;&lt;/span&gt;&lt;/span&gt;&lt;/span&gt;&lt;/div&gt;" style="text;strokeColor=none;fillColor=none;align=left;verticalAlign=top;spacingLeft=4;spacingRight=4;overflow=hidden;rotatable=0;points=[[0,0.5],[1,0.5]];portConstraint=eastwest;whiteSpace=wrap;html=1;" parent="N1wmeKVcwQzZcCEJc6FH-7" vertex="1">
          <mxGeometry y="78" width="290" height="112" as="geometry" />
        </mxCell>
        <mxCell id="N1wmeKVcwQzZcCEJc6FH-11" value="&lt;span style=&quot;padding: 0px 2px;&quot;&gt;&lt;span style=&quot;font-family: Consolas; font-size: 10pt; white-space: pre;&quot;&gt;&lt;font&gt;&lt;span style=&quot;color: rgb(18, 144, 195);&quot;&gt;&lt;font style=&quot;color: rgb(255, 255, 255);&quot;&gt;ArrayList&lt;/font&gt;&lt;/span&gt;&lt;span style=&quot;color: rgb(230, 230, 250);&quot;&gt;&amp;lt;&lt;/span&gt;&lt;span style=&quot;color: rgb(191, 164, 164);&quot;&gt;T&lt;/span&gt;&lt;span style=&quot;color: rgb(230, 230, 250);&quot;&gt;&amp;gt;&lt;/span&gt;&lt;/font&gt;&lt;/span&gt;&lt;/span&gt;" style="swimlane;fontStyle=1;align=center;verticalAlign=top;childLayout=stackLayout;horizontal=1;startSize=26;horizontalStack=0;resizeParent=1;resizeParentMax=0;resizeLast=0;collapsible=1;marginBottom=0;whiteSpace=wrap;html=1;" parent="1" vertex="1">
          <mxGeometry x="-460" y="170" width="310" height="220" as="geometry" />
        </mxCell>
        <mxCell id="N1wmeKVcwQzZcCEJc6FH-12" value="&lt;div style=&quot;padding: 0px 2px;&quot;&gt;&lt;div style=&quot;&quot;&gt;&lt;p style=&quot;margin: 0px;&quot;&gt;&lt;font face=&quot;Consolas&quot; color=&quot;#cccccc&quot;&gt;&lt;span style=&quot;font-size: 13.3333px; white-space: pre;&quot;&gt;- array: Object[] &lt;br/&gt;- size: int&lt;/span&gt;&lt;/font&gt;&lt;br&gt;&lt;/p&gt;&lt;/div&gt;&lt;/div&gt;" style="text;strokeColor=none;fillColor=none;align=left;verticalAlign=top;spacingLeft=4;spacingRight=4;overflow=hidden;rotatable=0;points=[[0,0.5],[1,0.5]];portConstraint=eastwest;whiteSpace=wrap;html=1;" parent="N1wmeKVcwQzZcCEJc6FH-11" vertex="1">
          <mxGeometry y="26" width="310" height="44" as="geometry" />
        </mxCell>
        <mxCell id="N1wmeKVcwQzZcCEJc6FH-13" value="" style="line;strokeWidth=1;fillColor=none;align=left;verticalAlign=middle;spacingTop=-1;spacingLeft=3;spacingRight=3;rotatable=0;labelPosition=right;points=[];portConstraint=eastwest;strokeColor=inherit;" parent="N1wmeKVcwQzZcCEJc6FH-11" vertex="1">
          <mxGeometry y="70" width="310" height="8" as="geometry" />
        </mxCell>
        <mxCell id="N1wmeKVcwQzZcCEJc6FH-14" value="&lt;font face=&quot;Consolas&quot; color=&quot;#f9faf4&quot;&gt;&lt;span style=&quot;font-size: 13.3333px; white-space: pre;&quot;&gt;+ ArrayList(length: int): &lt;br/&gt;+ add(element:T): void&lt;br/&gt;+ addFirst(element: T): void&lt;br/&gt;+ addAt(element: T , index: int): void&lt;br/&gt;+ get(index: int): T&lt;br/&gt;+ remove(index: int): void&lt;br/&gt;+ size(): int&lt;br/&gt;+ resize(): void&lt;/span&gt;&lt;/font&gt;" style="text;strokeColor=none;fillColor=none;align=left;verticalAlign=top;spacingLeft=4;spacingRight=4;overflow=hidden;rotatable=0;points=[[0,0.5],[1,0.5]];portConstraint=eastwest;whiteSpace=wrap;html=1;" parent="N1wmeKVcwQzZcCEJc6FH-11" vertex="1">
          <mxGeometry y="78" width="310" height="142" as="geometry" />
        </mxCell>
        <mxCell id="N1wmeKVcwQzZcCEJc6FH-15" value="&lt;span style=&quot;padding: 0px 2px;&quot;&gt;&lt;span style=&quot;padding: 0px 2px;&quot;&gt;&lt;span style=&quot;font-family: Consolas; font-size: 10pt; white-space: pre;&quot;&gt;&lt;font style=&quot;color: rgb(255, 255, 255);&quot;&gt;ArrayQueue&lt;/font&gt;&lt;/span&gt;&lt;/span&gt;&lt;span style=&quot;font-family: Consolas; font-size: 10pt; white-space: pre;&quot;&gt;&lt;font style=&quot;&quot;&gt;&lt;span style=&quot;color: rgb(230, 230, 250);&quot;&gt;&amp;lt;&lt;/span&gt;&lt;span style=&quot;color: rgb(191, 164, 164);&quot;&gt;T&lt;/span&gt;&lt;span style=&quot;color: rgb(230, 230, 250);&quot;&gt;&amp;gt;&lt;/span&gt;&lt;/font&gt;&lt;/span&gt;&lt;/span&gt;" style="swimlane;fontStyle=1;align=center;verticalAlign=top;childLayout=stackLayout;horizontal=1;startSize=26;horizontalStack=0;resizeParent=1;resizeParentMax=0;resizeLast=0;collapsible=1;marginBottom=0;whiteSpace=wrap;html=1;" parent="1" vertex="1">
          <mxGeometry x="-1240" y="-395" width="310" height="260" as="geometry" />
        </mxCell>
        <mxCell id="N1wmeKVcwQzZcCEJc6FH-16" value="&lt;div style=&quot;padding: 0px 2px;&quot;&gt;&lt;div style=&quot;&quot;&gt;&lt;p style=&quot;margin: 0px;&quot;&gt;&lt;font face=&quot;Consolas&quot; color=&quot;#cccccc&quot;&gt;&lt;span style=&quot;font-size: 13.3333px; white-space: pre;&quot;&gt;- array: Object[] &lt;br&gt;- size: int&lt;/span&gt;&lt;/font&gt;&lt;br&gt;&lt;/p&gt;&lt;p style=&quot;margin: 0px;&quot;&gt;&lt;font face=&quot;Consolas&quot; color=&quot;#cccccc&quot;&gt;&lt;span style=&quot;font-size: 13.3333px; white-space: pre;&quot;&gt;- front: int&lt;/span&gt;&lt;span style=&quot;font-size: 13.3333px; white-space: pre;&quot;&gt;&lt;br&gt;&lt;/span&gt;&lt;/font&gt;&lt;/p&gt;&lt;p style=&quot;margin: 0px;&quot;&gt;&lt;font face=&quot;Consolas&quot; color=&quot;#cccccc&quot;&gt;&lt;span style=&quot;font-size: 13.3333px; white-space: pre;&quot;&gt;- rear: int&lt;/span&gt;&lt;span style=&quot;font-size: 13.3333px; white-space: pre;&quot;&gt;&lt;br&gt;&lt;/span&gt;&lt;/font&gt;&lt;/p&gt;&lt;/div&gt;&lt;/div&gt;" style="text;strokeColor=none;fillColor=none;align=left;verticalAlign=top;spacingLeft=4;spacingRight=4;overflow=hidden;rotatable=0;points=[[0,0.5],[1,0.5]];portConstraint=eastwest;whiteSpace=wrap;html=1;" parent="N1wmeKVcwQzZcCEJc6FH-15" vertex="1">
          <mxGeometry y="26" width="310" height="84" as="geometry" />
        </mxCell>
        <mxCell id="N1wmeKVcwQzZcCEJc6FH-17" value="" style="line;strokeWidth=1;fillColor=none;align=left;verticalAlign=middle;spacingTop=-1;spacingLeft=3;spacingRight=3;rotatable=0;labelPosition=right;points=[];portConstraint=eastwest;strokeColor=inherit;" parent="N1wmeKVcwQzZcCEJc6FH-15" vertex="1">
          <mxGeometry y="110" width="310" height="8" as="geometry" />
        </mxCell>
        <mxCell id="N1wmeKVcwQzZcCEJc6FH-18" value="&lt;font face=&quot;Consolas&quot; color=&quot;#f9faf4&quot;&gt;&lt;span style=&quot;font-size: 13.3333px; white-space: pre;&quot;&gt;+ ArrayQueue(length: int): &lt;br/&gt;+ enqueue(item:T): void&lt;br/&gt;+ dequeue(): T&lt;br/&gt;+ peek(): T&lt;br/&gt;+ isEmpty(): boolean&lt;br/&gt;+ printAll(): void&lt;br/&gt;+ size(): int&lt;br/&gt;+ resize(): void&lt;/span&gt;&lt;/font&gt;" style="text;strokeColor=none;fillColor=none;align=left;verticalAlign=top;spacingLeft=4;spacingRight=4;overflow=hidden;rotatable=0;points=[[0,0.5],[1,0.5]];portConstraint=eastwest;whiteSpace=wrap;html=1;" parent="N1wmeKVcwQzZcCEJc6FH-15" vertex="1">
          <mxGeometry y="118" width="310" height="142" as="geometry" />
        </mxCell>
        <mxCell id="N1wmeKVcwQzZcCEJc6FH-19" value="&lt;span style=&quot;padding: 0px 2px;&quot;&gt;&lt;span style=&quot;padding: 0px 2px;&quot;&gt;&lt;span style=&quot;font-family: Consolas; font-size: 10pt; white-space: pre;&quot;&gt;&lt;font style=&quot;color: rgb(255, 255, 255);&quot;&gt;ArrayStack&lt;/font&gt;&lt;/span&gt;&lt;/span&gt;&lt;span style=&quot;font-family: Consolas; font-size: 10pt; white-space: pre;&quot;&gt;&lt;font style=&quot;&quot;&gt;&lt;span style=&quot;color: rgb(230, 230, 250);&quot;&gt;&amp;lt;&lt;/span&gt;&lt;span style=&quot;color: rgb(191, 164, 164);&quot;&gt;T&lt;/span&gt;&lt;span style=&quot;color: rgb(230, 230, 250);&quot;&gt;&amp;gt;&lt;/span&gt;&lt;/font&gt;&lt;/span&gt;&lt;/span&gt;" style="swimlane;fontStyle=1;align=center;verticalAlign=top;childLayout=stackLayout;horizontal=1;startSize=26;horizontalStack=0;resizeParent=1;resizeParentMax=0;resizeLast=0;collapsible=1;marginBottom=0;whiteSpace=wrap;html=1;" parent="1" vertex="1">
          <mxGeometry x="-850" y="119.99999999999997" width="310" height="210" as="geometry" />
        </mxCell>
        <mxCell id="N1wmeKVcwQzZcCEJc6FH-20" value="&lt;div style=&quot;padding: 0px 2px;&quot;&gt;&lt;div style=&quot;&quot;&gt;&lt;p style=&quot;margin: 0px;&quot;&gt;&lt;font face=&quot;Consolas&quot;&gt;&lt;span style=&quot;font-size: 13.3333px; white-space: pre;&quot;&gt;- list:ArrayList&amp;lt;T&amp;gt;&lt;/span&gt;&lt;/font&gt;&amp;nbsp;&lt;br&gt;&lt;/p&gt;&lt;/div&gt;&lt;/div&gt;" style="text;strokeColor=none;fillColor=none;align=left;verticalAlign=top;spacingLeft=4;spacingRight=4;overflow=hidden;rotatable=0;points=[[0,0.5],[1,0.5]];portConstraint=eastwest;whiteSpace=wrap;html=1;" parent="N1wmeKVcwQzZcCEJc6FH-19" vertex="1">
          <mxGeometry y="26" width="310" height="34" as="geometry" />
        </mxCell>
        <mxCell id="N1wmeKVcwQzZcCEJc6FH-21" value="" style="line;strokeWidth=1;fillColor=none;align=left;verticalAlign=middle;spacingTop=-1;spacingLeft=3;spacingRight=3;rotatable=0;labelPosition=right;points=[];portConstraint=eastwest;strokeColor=inherit;" parent="N1wmeKVcwQzZcCEJc6FH-19" vertex="1">
          <mxGeometry y="60" width="310" height="8" as="geometry" />
        </mxCell>
        <mxCell id="N1wmeKVcwQzZcCEJc6FH-22" value="&lt;font face=&quot;Consolas&quot; color=&quot;#f9faf4&quot;&gt;&lt;span style=&quot;font-size: 13.3333px; white-space: pre;&quot;&gt;+ ArrayStack(length: int): &lt;br/&gt;+ push(item:T): void&lt;br/&gt;+ pop(): T&lt;br/&gt;+ peek(): T&lt;br/&gt;+ isEmpty(): boolean&lt;br/&gt;+ clear(): void&lt;br/&gt;+ size(): int&lt;/span&gt;&lt;br&gt;&lt;/font&gt;" style="text;strokeColor=none;fillColor=none;align=left;verticalAlign=top;spacingLeft=4;spacingRight=4;overflow=hidden;rotatable=0;points=[[0,0.5],[1,0.5]];portConstraint=eastwest;whiteSpace=wrap;html=1;" parent="N1wmeKVcwQzZcCEJc6FH-19" vertex="1">
          <mxGeometry y="68" width="310" height="142" as="geometry" />
        </mxCell>
        <mxCell id="N1wmeKVcwQzZcCEJc6FH-23" value="&lt;font face=&quot;Consolas&quot;&gt;&lt;span style=&quot;font-size: 13.3333px; white-space: pre;&quot;&gt;LinkedQueue&amp;lt;T&amp;gt;&lt;/span&gt;&lt;/font&gt;" style="swimlane;fontStyle=1;align=center;verticalAlign=top;childLayout=stackLayout;horizontal=1;startSize=26;horizontalStack=0;resizeParent=1;resizeParentMax=0;resizeLast=0;collapsible=1;marginBottom=0;whiteSpace=wrap;html=1;" parent="1" vertex="1">
          <mxGeometry x="-340" y="-440" width="310" height="160" as="geometry" />
        </mxCell>
        <mxCell id="N1wmeKVcwQzZcCEJc6FH-24" value="&lt;div style=&quot;padding: 0px 2px;&quot;&gt;&lt;div style=&quot;&quot;&gt;&lt;p style=&quot;margin: 0px;&quot;&gt;&lt;font style=&quot;color: rgb(255, 255, 255);&quot; face=&quot;Consolas&quot;&gt;&lt;span style=&quot;font-size: 13.3333px; white-space: pre;&quot;&gt;- list: linkedList&amp;lt;T&amp;gt;&lt;/span&gt;&lt;/font&gt;&lt;br&gt;&lt;/p&gt;&lt;/div&gt;&lt;/div&gt;" style="text;strokeColor=none;fillColor=none;align=left;verticalAlign=top;spacingLeft=4;spacingRight=4;overflow=hidden;rotatable=0;points=[[0,0.5],[1,0.5]];portConstraint=eastwest;whiteSpace=wrap;html=1;" parent="N1wmeKVcwQzZcCEJc6FH-23" vertex="1">
          <mxGeometry y="26" width="310" height="44" as="geometry" />
        </mxCell>
        <mxCell id="N1wmeKVcwQzZcCEJc6FH-25" value="" style="line;strokeWidth=1;fillColor=none;align=left;verticalAlign=middle;spacingTop=-1;spacingLeft=3;spacingRight=3;rotatable=0;labelPosition=right;points=[];portConstraint=eastwest;strokeColor=inherit;" parent="N1wmeKVcwQzZcCEJc6FH-23" vertex="1">
          <mxGeometry y="70" width="310" height="8" as="geometry" />
        </mxCell>
        <mxCell id="N1wmeKVcwQzZcCEJc6FH-26" value="&lt;font face=&quot;Consolas&quot; color=&quot;#f9faf4&quot;&gt;&lt;span style=&quot;font-size: 13.3333px; white-space: pre;&quot;&gt;+ enqueue(item:T): void&lt;br&gt;+ dequeue(): T&lt;br&gt;+ peek(): T&lt;br&gt;+ isEmpty(): boolean&lt;br&gt;&lt;br&gt;&lt;/span&gt;&lt;/font&gt;" style="text;strokeColor=none;fillColor=none;align=left;verticalAlign=top;spacingLeft=4;spacingRight=4;overflow=hidden;rotatable=0;points=[[0,0.5],[1,0.5]];portConstraint=eastwest;whiteSpace=wrap;html=1;" parent="N1wmeKVcwQzZcCEJc6FH-23" vertex="1">
          <mxGeometry y="78" width="310" height="82" as="geometry" />
        </mxCell>
        <mxCell id="N1wmeKVcwQzZcCEJc6FH-27" value="&lt;span style=&quot;padding: 0px 2px;&quot;&gt;&lt;span style=&quot;font-family: Consolas; font-size: 10pt; white-space: pre;&quot;&gt;&lt;font style=&quot;color: rgb(204, 204, 204);&quot;&gt;&lt;span&gt;&lt;/span&gt;&lt;span&gt;BSTNode&lt;/span&gt;&lt;span&gt;&amp;lt;&lt;/span&gt;&lt;span&gt;T&lt;/span&gt;&lt;span&gt;&amp;gt;&lt;/span&gt;&lt;/font&gt;&lt;/span&gt;&lt;/span&gt;" style="swimlane;fontStyle=1;align=center;verticalAlign=top;childLayout=stackLayout;horizontal=1;startSize=26;horizontalStack=0;resizeParent=1;resizeParentMax=0;resizeLast=0;collapsible=1;marginBottom=0;whiteSpace=wrap;html=1;" parent="1" vertex="1">
          <mxGeometry x="1535" y="-440" width="160" height="124" as="geometry" />
        </mxCell>
        <mxCell id="N1wmeKVcwQzZcCEJc6FH-28" value="&lt;div style=&quot;padding: 0px 2px;&quot;&gt;&lt;div style=&quot;font-family: Consolas; font-size: 10pt; white-space: pre;&quot;&gt;&lt;p style=&quot;margin: 0px;&quot;&gt;&lt;span style=&quot;background-color: light-dark(#ffffff, var(--ge-dark-color, #121212));&quot;&gt;&lt;font style=&quot;color: rgb(204, 204, 204);&quot;&gt;# data: T&lt;/font&gt;&lt;/span&gt;&lt;/p&gt;&lt;p style=&quot;margin: 0px;&quot;&gt;&lt;span style=&quot;background-color: light-dark(#ffffff, var(--ge-dark-color, #121212));&quot;&gt;&lt;font style=&quot;color: rgb(204, 204, 204);&quot;&gt;# left: BST&lt;/font&gt;&lt;/span&gt;&lt;span style=&quot;background-color: rgb(18, 18, 18); color: rgb(204, 204, 204); font-size: 13.3333px;&quot;&gt;Node&amp;lt;T&amp;gt;&lt;/span&gt;&lt;/p&gt;&lt;p style=&quot;margin: 0px;&quot;&gt;&lt;span style=&quot;background-color: rgb(18, 18, 18); color: rgb(204, 204, 204); font-size: 13.3333px;&quot;&gt;&lt;span style=&quot;color: rgb(255, 255, 255); font-size: 13.3333px; background-color: light-dark(#ffffff, var(--ge-dark-color, #121212));&quot;&gt;&lt;font style=&quot;color: rgb(204, 204, 204);&quot;&gt;# right: &lt;/font&gt;&lt;/span&gt;&lt;span style=&quot;color: rgb(255, 255, 255); font-size: 13.3333px; background-color: light-dark(#ffffff, var(--ge-dark-color, #121212));&quot;&gt;&lt;font style=&quot;color: rgb(204, 204, 204);&quot;&gt;BST&lt;/font&gt;&lt;/span&gt;&lt;span style=&quot;background-color: rgb(18, 18, 18); color: rgb(204, 204, 204); font-size: 13.3333px;&quot;&gt;Node&lt;/span&gt;&lt;span style=&quot;background-color: rgb(18, 18, 18); color: rgb(204, 204, 204); font-size: 13.3333px;&quot;&gt;&amp;lt;T&amp;gt;&lt;/span&gt;&lt;br&gt;&lt;/span&gt;&lt;/p&gt;&lt;/div&gt;&lt;/div&gt;" style="text;strokeColor=none;fillColor=none;align=left;verticalAlign=top;spacingLeft=4;spacingRight=4;overflow=hidden;rotatable=0;points=[[0,0.5],[1,0.5]];portConstraint=eastwest;whiteSpace=wrap;html=1;" parent="N1wmeKVcwQzZcCEJc6FH-27" vertex="1">
          <mxGeometry y="26" width="160" height="64" as="geometry" />
        </mxCell>
        <mxCell id="N1wmeKVcwQzZcCEJc6FH-29" value="" style="line;strokeWidth=1;fillColor=none;align=left;verticalAlign=middle;spacingTop=-1;spacingLeft=3;spacingRight=3;rotatable=0;labelPosition=right;points=[];portConstraint=eastwest;strokeColor=inherit;" parent="N1wmeKVcwQzZcCEJc6FH-27" vertex="1">
          <mxGeometry y="90" width="160" height="8" as="geometry" />
        </mxCell>
        <mxCell id="N1wmeKVcwQzZcCEJc6FH-30" value="&lt;span style=&quot;padding: 0px 2px;&quot;&gt;&lt;span style=&quot;font-family: Consolas; font-size: 10pt; white-space: pre;&quot;&gt;&lt;font style=&quot;color: rgb(204, 204, 204);&quot;&gt;+ BSTNode(data: &lt;/font&gt;&lt;/span&gt;&lt;span style=&quot;color: rgb(204, 204, 204); font-family: Consolas; font-size: 13.3333px; white-space: pre;&quot;&gt;T&lt;/span&gt;&lt;span style=&quot;font-family: Consolas; font-size: 10pt; white-space: pre;&quot;&gt;&lt;font style=&quot;color: rgb(204, 204, 204);&quot;&gt;)&lt;/font&gt;&lt;/span&gt;&lt;/span&gt;" style="text;strokeColor=none;fillColor=none;align=left;verticalAlign=top;spacingLeft=4;spacingRight=4;overflow=hidden;rotatable=0;points=[[0,0.5],[1,0.5]];portConstraint=eastwest;whiteSpace=wrap;html=1;" parent="N1wmeKVcwQzZcCEJc6FH-27" vertex="1">
          <mxGeometry y="98" width="160" height="26" as="geometry" />
        </mxCell>
        <mxCell id="N1wmeKVcwQzZcCEJc6FH-31" value="&lt;span style=&quot;padding: 0px 2px;&quot;&gt;&lt;span style=&quot;font-family: Consolas; font-size: 10pt; white-space: pre;&quot;&gt;&lt;font&gt;&lt;font style=&quot;color: rgb(255, 255, 255);&quot;&gt;&lt;span style=&quot;color: rgb(217, 232, 247);&quot;&gt;&lt;/span&gt;&lt;/font&gt;&lt;span style=&quot;color: rgb(18, 144, 195);&quot;&gt;&lt;font style=&quot;color: rgb(255, 255, 255);&quot;&gt;BST&lt;/font&gt;&lt;/span&gt;&lt;span style=&quot;color: rgb(230, 230, 250);&quot;&gt;&amp;lt;&lt;/span&gt;&lt;span style=&quot;color: rgb(191, 164, 164);&quot;&gt;T&lt;/span&gt;&lt;span style=&quot;color: rgb(230, 230, 250);&quot;&gt;&amp;gt;&lt;/span&gt;&lt;/font&gt;&lt;/span&gt;&lt;/span&gt;" style="swimlane;fontStyle=1;align=center;verticalAlign=top;childLayout=stackLayout;horizontal=1;startSize=26;horizontalStack=0;resizeParent=1;resizeParentMax=0;resizeLast=0;collapsible=1;marginBottom=0;whiteSpace=wrap;html=1;" parent="1" vertex="1">
          <mxGeometry x="1535" y="-222" width="290" height="140" as="geometry" />
        </mxCell>
        <mxCell id="N1wmeKVcwQzZcCEJc6FH-32" value="&lt;div style=&quot;padding: 0px 2px;&quot;&gt;&lt;div style=&quot;&quot;&gt;&lt;p style=&quot;margin: 0px;&quot;&gt;&lt;font face=&quot;Consolas&quot; color=&quot;#cccccc&quot;&gt;&lt;span style=&quot;font-size: 13.3333px; white-space: pre;&quot;&gt;- root: BSTNode&amp;lt;T&amp;gt; &lt;br&gt;&lt;/span&gt;&lt;/font&gt;&lt;br&gt;&lt;/p&gt;&lt;/div&gt;&lt;/div&gt;" style="text;strokeColor=none;fillColor=none;align=left;verticalAlign=top;spacingLeft=4;spacingRight=4;overflow=hidden;rotatable=0;points=[[0,0.5],[1,0.5]];portConstraint=eastwest;whiteSpace=wrap;html=1;" parent="N1wmeKVcwQzZcCEJc6FH-31" vertex="1">
          <mxGeometry y="26" width="290" height="44" as="geometry" />
        </mxCell>
        <mxCell id="N1wmeKVcwQzZcCEJc6FH-33" value="" style="line;strokeWidth=1;fillColor=none;align=left;verticalAlign=middle;spacingTop=-1;spacingLeft=3;spacingRight=3;rotatable=0;labelPosition=right;points=[];portConstraint=eastwest;strokeColor=inherit;" parent="N1wmeKVcwQzZcCEJc6FH-31" vertex="1">
          <mxGeometry y="70" width="290" height="8" as="geometry" />
        </mxCell>
        <mxCell id="N1wmeKVcwQzZcCEJc6FH-34" value="&lt;div&gt;&lt;span style=&quot;padding: 0px 2px;&quot;&gt;&lt;span style=&quot;background-color: light-dark(#ffffff, var(--ge-dark-color, #121212)); color: rgb(249, 250, 244);&quot;&gt;&lt;span style=&quot;background-color: light-dark(#ffffff, var(--ge-dark-color, #121212)); color: rgb(249, 250, 244);&quot;&gt;&lt;span style=&quot;background-color: light-dark(#ffffff, var(--ge-dark-color, #121212)); color: rgb(249, 250, 244);&quot;&gt;&lt;span style=&quot;background-color: light-dark(#ffffff, var(--ge-dark-color, #121212)); color: rgb(249, 250, 244);&quot;&gt;&lt;font style=&quot;color: rgb(249, 250, 244);&quot; face=&quot;Consolas&quot;&gt;&lt;span style=&quot;font-size: 13.3333px; white-space: pre;&quot;&gt;+ insert(data: T): void&lt;br&gt;+ search(data: T): boolean&lt;br&gt;+ delete(data: T): void&lt;/span&gt;&lt;/font&gt;&lt;br&gt;&lt;/span&gt;&lt;/span&gt;&lt;/span&gt;&lt;/span&gt;&lt;/span&gt;&lt;/div&gt;" style="text;strokeColor=none;fillColor=none;align=left;verticalAlign=top;spacingLeft=4;spacingRight=4;overflow=hidden;rotatable=0;points=[[0,0.5],[1,0.5]];portConstraint=eastwest;whiteSpace=wrap;html=1;" parent="N1wmeKVcwQzZcCEJc6FH-31" vertex="1">
          <mxGeometry y="78" width="290" height="62" as="geometry" />
        </mxCell>
        <mxCell id="N1wmeKVcwQzZcCEJc6FH-35" value="&lt;font face=&quot;Consolas&quot;&gt;&lt;span style=&quot;font-size: 13.3333px; white-space: pre;&quot;&gt;EventRegistrationMain&lt;/span&gt;&lt;/font&gt;" style="swimlane;fontStyle=0;childLayout=stackLayout;horizontal=1;startSize=26;fillColor=none;horizontalStack=0;resizeParent=1;resizeParentMax=0;resizeLast=0;collapsible=1;marginBottom=0;whiteSpace=wrap;html=1;" parent="1" vertex="1">
          <mxGeometry x="-1460" y="310" width="350" height="80" as="geometry" />
        </mxCell>
        <mxCell id="N1wmeKVcwQzZcCEJc6FH-36" value="+ Start(sc: scanner,manager : EventRegistrationManager ): void" style="text;strokeColor=none;fillColor=none;align=left;verticalAlign=top;spacingLeft=4;spacingRight=4;overflow=hidden;rotatable=0;points=[[0,0.5],[1,0.5]];portConstraint=eastwest;whiteSpace=wrap;html=1;" parent="N1wmeKVcwQzZcCEJc6FH-35" vertex="1">
          <mxGeometry y="26" width="350" height="54" as="geometry" />
        </mxCell>
        <mxCell id="N1wmeKVcwQzZcCEJc6FH-42" value="&lt;span style=&quot;font-family: Consolas; font-size: 13.3333px; font-weight: 400; white-space: pre;&quot;&gt;EventRegistrationManager&lt;/span&gt;" style="swimlane;fontStyle=1;align=center;verticalAlign=top;childLayout=stackLayout;horizontal=1;startSize=26;horizontalStack=0;resizeParent=1;resizeParentMax=0;resizeLast=0;collapsible=1;marginBottom=0;whiteSpace=wrap;html=1;" parent="1" vertex="1">
          <mxGeometry x="-1300" y="5" width="430" height="190" as="geometry" />
        </mxCell>
        <mxCell id="N1wmeKVcwQzZcCEJc6FH-43" value="&lt;div style=&quot;padding: 0px 2px;&quot;&gt;&lt;div style=&quot;&quot;&gt;&lt;p style=&quot;margin: 0px;&quot;&gt;&lt;font face=&quot;Consolas&quot;&gt;&lt;span style=&quot;font-size: 13.3333px; white-space: pre;&quot;&gt;- queue: ArrayQueue&amp;lt;Student&amp;gt;&lt;br&gt;- undoRedo: UndoRedoManager&lt;/span&gt;&lt;/font&gt;&amp;nbsp;&lt;br&gt;&lt;/p&gt;&lt;/div&gt;&lt;/div&gt;" style="text;strokeColor=none;fillColor=none;align=left;verticalAlign=top;spacingLeft=4;spacingRight=4;overflow=hidden;rotatable=0;points=[[0,0.5],[1,0.5]];portConstraint=eastwest;whiteSpace=wrap;html=1;" parent="N1wmeKVcwQzZcCEJc6FH-42" vertex="1">
          <mxGeometry y="26" width="430" height="44" as="geometry" />
        </mxCell>
        <mxCell id="N1wmeKVcwQzZcCEJc6FH-44" value="" style="line;strokeWidth=1;fillColor=none;align=left;verticalAlign=middle;spacingTop=-1;spacingLeft=3;spacingRight=3;rotatable=0;labelPosition=right;points=[];portConstraint=eastwest;strokeColor=inherit;" parent="N1wmeKVcwQzZcCEJc6FH-42" vertex="1">
          <mxGeometry y="70" width="430" height="8" as="geometry" />
        </mxCell>
        <mxCell id="N1wmeKVcwQzZcCEJc6FH-45" value="&lt;div&gt;&lt;font face=&quot;Consolas&quot; color=&quot;#f9faf4&quot;&gt;&lt;span style=&quot;font-size: 13.3333px; white-space: pre;&quot;&gt;+ EventRegistrationManager(): &lt;br/&gt;+ registerStudent(name: String, eventName: string): void&lt;br/&gt;+ viewAll(): void&lt;br/&gt;+ processNextStudent(): void&lt;br/&gt;+ undo(): void&lt;br/&gt;+ redo(): void&lt;/span&gt;&lt;span style=&quot;color: light-dark(rgb(249, 250, 244), rgb(249, 250, 244)); font-size: 13.3333px; white-space: pre;&quot;&gt;&lt;br/&gt;&lt;/span&gt;&lt;/font&gt;&lt;/div&gt;" style="text;strokeColor=none;fillColor=none;align=left;verticalAlign=top;spacingLeft=4;spacingRight=4;overflow=hidden;rotatable=0;points=[[0,0.5],[1,0.5]];portConstraint=eastwest;whiteSpace=wrap;html=1;" parent="N1wmeKVcwQzZcCEJc6FH-42" vertex="1">
          <mxGeometry y="78" width="430" height="112" as="geometry" />
        </mxCell>
        <mxCell id="N1wmeKVcwQzZcCEJc6FH-46" value="&lt;span style=&quot;padding: 0px 2px;&quot;&gt;&lt;span style=&quot;font-family: Consolas; font-size: 10pt; white-space: pre;&quot;&gt;&lt;span style=&quot;text-decoration-color: rgb(0, 102, 204);&quot;&gt;&lt;font style=&quot;color: rgb(255, 255, 255);&quot;&gt;Student&lt;/font&gt;&lt;/span&gt;&lt;/span&gt;&lt;/span&gt;" style="swimlane;fontStyle=1;align=center;verticalAlign=top;childLayout=stackLayout;horizontal=1;startSize=26;horizontalStack=0;resizeParent=1;resizeParentMax=0;resizeLast=0;collapsible=1;marginBottom=0;whiteSpace=wrap;html=1;" parent="1" vertex="1">
          <mxGeometry x="-1860" y="-5" width="430" height="210" as="geometry" />
        </mxCell>
        <mxCell id="N1wmeKVcwQzZcCEJc6FH-47" value="&lt;div style=&quot;padding: 0px 2px;&quot;&gt;&lt;div style=&quot;&quot;&gt;&lt;p style=&quot;margin: 0px;&quot;&gt;&lt;font face=&quot;Consolas&quot;&gt;&lt;span style=&quot;font-size: 13.3333px; white-space: pre;&quot;&gt;- id: int&lt;br&gt;- name: String&lt;/span&gt;&lt;/font&gt;&lt;br&gt;&lt;/p&gt;&lt;p style=&quot;margin: 0px;&quot;&gt;&lt;span style=&quot;font-family: Consolas; font-size: 13.3333px; white-space: pre;&quot;&gt;- event: String&lt;/span&gt;&lt;font face=&quot;Consolas&quot;&gt;&lt;span style=&quot;font-size: 13.3333px; white-space: pre;&quot;&gt;&lt;br&gt;&lt;/span&gt;&lt;/font&gt;&lt;/p&gt;&lt;/div&gt;&lt;/div&gt;" style="text;strokeColor=none;fillColor=none;align=left;verticalAlign=top;spacingLeft=4;spacingRight=4;overflow=hidden;rotatable=0;points=[[0,0.5],[1,0.5]];portConstraint=eastwest;whiteSpace=wrap;html=1;" parent="N1wmeKVcwQzZcCEJc6FH-46" vertex="1">
          <mxGeometry y="26" width="430" height="64" as="geometry" />
        </mxCell>
        <mxCell id="N1wmeKVcwQzZcCEJc6FH-48" value="" style="line;strokeWidth=1;fillColor=none;align=left;verticalAlign=middle;spacingTop=-1;spacingLeft=3;spacingRight=3;rotatable=0;labelPosition=right;points=[];portConstraint=eastwest;strokeColor=inherit;" parent="N1wmeKVcwQzZcCEJc6FH-46" vertex="1">
          <mxGeometry y="90" width="430" height="8" as="geometry" />
        </mxCell>
        <mxCell id="N1wmeKVcwQzZcCEJc6FH-49" value="&lt;font face=&quot;Consolas&quot; color=&quot;#f9faf4&quot;&gt;&lt;span style=&quot;font-size: 13.3333px; white-space: pre;&quot;&gt;+ Student(name: String, event: String): &lt;br/&gt;+ getId(): int&lt;br/&gt;+ toString(): String&lt;/span&gt;&lt;/font&gt;" style="text;strokeColor=none;fillColor=none;align=left;verticalAlign=top;spacingLeft=4;spacingRight=4;overflow=hidden;rotatable=0;points=[[0,0.5],[1,0.5]];portConstraint=eastwest;whiteSpace=wrap;html=1;" parent="N1wmeKVcwQzZcCEJc6FH-46" vertex="1">
          <mxGeometry y="98" width="430" height="112" as="geometry" />
        </mxCell>
        <mxCell id="N1wmeKVcwQzZcCEJc6FH-50" value="&lt;span style=&quot;padding: 0px 2px;&quot;&gt;&lt;span style=&quot;font-family: Consolas; font-size: 10pt; white-space: pre;&quot;&gt;&lt;span style=&quot;text-decoration-color: rgb(0, 102, 204);&quot;&gt;&lt;font style=&quot;color: rgb(255, 255, 255);&quot;&gt;Locker&lt;/font&gt;&lt;/span&gt;&lt;/span&gt;&lt;/span&gt;" style="swimlane;fontStyle=1;align=center;verticalAlign=top;childLayout=stackLayout;horizontal=1;startSize=26;horizontalStack=0;resizeParent=1;resizeParentMax=0;resizeLast=0;collapsible=1;marginBottom=0;whiteSpace=wrap;html=1;" parent="1" vertex="1">
          <mxGeometry x="2285" y="70" width="430" height="200" as="geometry" />
        </mxCell>
        <mxCell id="N1wmeKVcwQzZcCEJc6FH-51" value="&lt;div style=&quot;padding: 0px 2px;&quot;&gt;&lt;div style=&quot;&quot;&gt;&lt;p style=&quot;margin: 0px;&quot;&gt;&lt;font face=&quot;Consolas&quot;&gt;&lt;span style=&quot;font-size: 13.3333px; white-space: pre;&quot;&gt;- studentId: int&lt;br/&gt;- lockerNumber: String&lt;/span&gt;&lt;/font&gt;&lt;br&gt;&lt;/p&gt;&lt;/div&gt;&lt;/div&gt;" style="text;strokeColor=none;fillColor=none;align=left;verticalAlign=top;spacingLeft=4;spacingRight=4;overflow=hidden;rotatable=0;points=[[0,0.5],[1,0.5]];portConstraint=eastwest;whiteSpace=wrap;html=1;" parent="N1wmeKVcwQzZcCEJc6FH-50" vertex="1">
          <mxGeometry y="26" width="430" height="54" as="geometry" />
        </mxCell>
        <mxCell id="N1wmeKVcwQzZcCEJc6FH-52" value="" style="line;strokeWidth=1;fillColor=none;align=left;verticalAlign=middle;spacingTop=-1;spacingLeft=3;spacingRight=3;rotatable=0;labelPosition=right;points=[];portConstraint=eastwest;strokeColor=inherit;" parent="N1wmeKVcwQzZcCEJc6FH-50" vertex="1">
          <mxGeometry y="80" width="430" height="8" as="geometry" />
        </mxCell>
        <mxCell id="N1wmeKVcwQzZcCEJc6FH-53" value="&lt;font face=&quot;Consolas&quot; color=&quot;#f9faf4&quot;&gt;&lt;span style=&quot;font-size: 13.3333px; white-space: pre;&quot;&gt;+ Locker(studentId: int, lockerNumber: String): &lt;br/&gt;+ getStudentId(): int&lt;br/&gt;+ getLockerNumber(): String&lt;br/&gt;+ compareTo(other: Locker)&lt;br/&gt;+ toString(): String&lt;/span&gt;&lt;/font&gt;" style="text;strokeColor=none;fillColor=none;align=left;verticalAlign=top;spacingLeft=4;spacingRight=4;overflow=hidden;rotatable=0;points=[[0,0.5],[1,0.5]];portConstraint=eastwest;whiteSpace=wrap;html=1;" parent="N1wmeKVcwQzZcCEJc6FH-50" vertex="1">
          <mxGeometry y="88" width="430" height="112" as="geometry" />
        </mxCell>
        <mxCell id="N1wmeKVcwQzZcCEJc6FH-54" value="&lt;font face=&quot;Consolas&quot;&gt;&lt;span style=&quot;font-size: 13.3333px; white-space: pre;&quot;&gt;LockerMain&lt;/span&gt;&lt;/font&gt;" style="swimlane;fontStyle=0;childLayout=stackLayout;horizontal=1;startSize=26;fillColor=none;horizontalStack=0;resizeParent=1;resizeParentMax=0;resizeLast=0;collapsible=1;marginBottom=0;whiteSpace=wrap;html=1;" parent="1" vertex="1">
          <mxGeometry x="1755" y="375" width="350" height="80" as="geometry" />
        </mxCell>
        <mxCell id="N1wmeKVcwQzZcCEJc6FH-55" value="+ Start(sc: scanner,manager :&amp;nbsp;&lt;span style=&quot;padding: 0px 2px;&quot;&gt;&lt;span style=&quot;font-family: Consolas; font-size: 10pt; white-space: pre;&quot;&gt;&lt;font style=&quot;color: rgb(255, 255, 255);&quot;&gt;LockerManager&lt;/font&gt;&lt;/span&gt;&lt;/span&gt;): void" style="text;strokeColor=none;fillColor=none;align=left;verticalAlign=top;spacingLeft=4;spacingRight=4;overflow=hidden;rotatable=0;points=[[0,0.5],[1,0.5]];portConstraint=eastwest;whiteSpace=wrap;html=1;" parent="N1wmeKVcwQzZcCEJc6FH-54" vertex="1">
          <mxGeometry y="26" width="350" height="54" as="geometry" />
        </mxCell>
        <mxCell id="N1wmeKVcwQzZcCEJc6FH-56" value="&lt;span style=&quot;font-family: Consolas; font-size: 13.3333px; font-weight: 400; text-align: left; white-space: pre;&quot;&gt;LockerManager&lt;/span&gt;" style="swimlane;fontStyle=1;align=center;verticalAlign=top;childLayout=stackLayout;horizontal=1;startSize=26;horizontalStack=0;resizeParent=1;resizeParentMax=0;resizeLast=0;collapsible=1;marginBottom=0;whiteSpace=wrap;html=1;" parent="1" vertex="1">
          <mxGeometry x="1715" y="75" width="470" height="190" as="geometry" />
        </mxCell>
        <mxCell id="N1wmeKVcwQzZcCEJc6FH-57" value="&lt;div style=&quot;padding: 0px 2px;&quot;&gt;&lt;div style=&quot;&quot;&gt;&lt;p style=&quot;margin: 0px;&quot;&gt;&lt;font face=&quot;Consolas&quot;&gt;&lt;span style=&quot;font-size: 13.3333px; white-space: pre;&quot;&gt;- lockerBST: BST&amp;lt;Locker&amp;gt;&lt;br/&gt;- undoRedo: UndoRedoManager&lt;/span&gt;&lt;/font&gt;&amp;nbsp;&lt;br&gt;&lt;/p&gt;&lt;/div&gt;&lt;/div&gt;" style="text;strokeColor=none;fillColor=none;align=left;verticalAlign=top;spacingLeft=4;spacingRight=4;overflow=hidden;rotatable=0;points=[[0,0.5],[1,0.5]];portConstraint=eastwest;whiteSpace=wrap;html=1;" parent="N1wmeKVcwQzZcCEJc6FH-56" vertex="1">
          <mxGeometry y="26" width="470" height="44" as="geometry" />
        </mxCell>
        <mxCell id="N1wmeKVcwQzZcCEJc6FH-58" value="" style="line;strokeWidth=1;fillColor=none;align=left;verticalAlign=middle;spacingTop=-1;spacingLeft=3;spacingRight=3;rotatable=0;labelPosition=right;points=[];portConstraint=eastwest;strokeColor=inherit;" parent="N1wmeKVcwQzZcCEJc6FH-56" vertex="1">
          <mxGeometry y="70" width="470" height="8" as="geometry" />
        </mxCell>
        <mxCell id="N1wmeKVcwQzZcCEJc6FH-59" value="&lt;div&gt;&lt;font face=&quot;Consolas&quot; color=&quot;#f9faf4&quot;&gt;&lt;span style=&quot;font-size: 13.3333px; white-space: pre;&quot;&gt;+ LockerManager(): &lt;br/&gt;+ registerLocker(studentId: int, lockerNumber: String): void&lt;br/&gt;+ removeLocker(studentId: int): void&lt;br/&gt;+ lookupLocker(studentId: int): void&lt;br/&gt;+ undo(): void&lt;br/&gt;+ redo(): void&lt;/span&gt;&lt;/font&gt;&lt;br&gt;&lt;/div&gt;" style="text;strokeColor=none;fillColor=none;align=left;verticalAlign=top;spacingLeft=4;spacingRight=4;overflow=hidden;rotatable=0;points=[[0,0.5],[1,0.5]];portConstraint=eastwest;whiteSpace=wrap;html=1;" parent="N1wmeKVcwQzZcCEJc6FH-56" vertex="1">
          <mxGeometry y="78" width="470" height="112" as="geometry" />
        </mxCell>
        <mxCell id="N1wmeKVcwQzZcCEJc6FH-60" value="&lt;span style=&quot;background-color:#2f2f2f;padding:0px 2px 0px 2px;&quot;&gt;&lt;span style=&quot;font-family: Consolas; font-size: 10pt; white-space: pre;&quot;&gt;&lt;font style=&quot;color: rgb(255, 255, 255);&quot;&gt;LostFoundMain&lt;/font&gt;&lt;/span&gt;&lt;/span&gt;" style="swimlane;fontStyle=0;childLayout=stackLayout;horizontal=1;startSize=26;fillColor=none;horizontalStack=0;resizeParent=1;resizeParentMax=0;resizeLast=0;collapsible=1;marginBottom=0;whiteSpace=wrap;html=1;" parent="1" vertex="1">
          <mxGeometry x="90" y="68.98000000000002" width="350" height="80" as="geometry" />
        </mxCell>
        <mxCell id="N1wmeKVcwQzZcCEJc6FH-61" value="+ Start(sc: scanner,manager :&amp;nbsp;&lt;span style=&quot;font-family: Consolas; font-size: 13.3333px; font-weight: 700; text-align: center; white-space: pre;&quot;&gt;LostFoundManager&lt;/span&gt;): void" style="text;strokeColor=none;fillColor=none;align=left;verticalAlign=top;spacingLeft=4;spacingRight=4;overflow=hidden;rotatable=0;points=[[0,0.5],[1,0.5]];portConstraint=eastwest;whiteSpace=wrap;html=1;" parent="N1wmeKVcwQzZcCEJc6FH-60" vertex="1">
          <mxGeometry y="26" width="350" height="54" as="geometry" />
        </mxCell>
        <mxCell id="N1wmeKVcwQzZcCEJc6FH-62" value="&lt;span style=&quot;padding: 0px 2px;&quot;&gt;&lt;span style=&quot;font-family: Consolas; font-size: 10pt; white-space: pre;&quot;&gt;&lt;font style=&quot;color: rgb(255, 255, 255);&quot;&gt;&lt;font style=&quot;&quot;&gt;&lt;span&gt;&lt;/span&gt;&lt;/font&gt;&lt;span&gt;LostFoundManager&lt;/span&gt;&lt;/font&gt;&lt;/span&gt;&lt;/span&gt;" style="swimlane;fontStyle=1;align=center;verticalAlign=top;childLayout=stackLayout;horizontal=1;startSize=26;horizontalStack=0;resizeParent=1;resizeParentMax=0;resizeLast=0;collapsible=1;marginBottom=0;whiteSpace=wrap;html=1;" parent="1" vertex="1">
          <mxGeometry x="-30" y="-231.01999999999998" width="510" height="190" as="geometry" />
        </mxCell>
        <mxCell id="N1wmeKVcwQzZcCEJc6FH-63" value="&lt;div style=&quot;padding: 0px 2px;&quot;&gt;&lt;div style=&quot;&quot;&gt;&lt;p style=&quot;margin: 0px;&quot;&gt;&lt;font face=&quot;Consolas&quot;&gt;&lt;span style=&quot;font-size: 13.3333px; white-space: pre;&quot;&gt;- itemList: LinkedList&amp;lt;LostFoundItem&amp;gt;&lt;br/&gt;- undoRedo: UndoRedoManager&lt;/span&gt;&lt;/font&gt;&amp;nbsp;&lt;br&gt;&lt;/p&gt;&lt;/div&gt;&lt;/div&gt;" style="text;strokeColor=none;fillColor=none;align=left;verticalAlign=top;spacingLeft=4;spacingRight=4;overflow=hidden;rotatable=0;points=[[0,0.5],[1,0.5]];portConstraint=eastwest;whiteSpace=wrap;html=1;" parent="N1wmeKVcwQzZcCEJc6FH-62" vertex="1">
          <mxGeometry y="26" width="510" height="44" as="geometry" />
        </mxCell>
        <mxCell id="N1wmeKVcwQzZcCEJc6FH-64" value="" style="line;strokeWidth=1;fillColor=none;align=left;verticalAlign=middle;spacingTop=-1;spacingLeft=3;spacingRight=3;rotatable=0;labelPosition=right;points=[];portConstraint=eastwest;strokeColor=inherit;" parent="N1wmeKVcwQzZcCEJc6FH-62" vertex="1">
          <mxGeometry y="70" width="510" height="8" as="geometry" />
        </mxCell>
        <mxCell id="N1wmeKVcwQzZcCEJc6FH-65" value="&lt;div&gt;&lt;font face=&quot;Consolas&quot; color=&quot;#f9faf4&quot;&gt;&lt;span style=&quot;font-size: 13.3333px; white-space: pre;&quot;&gt;+ LostFoundManager(): &lt;br&gt;+ addItem(String description, String date, String location): void&lt;br&gt;+ removeItem(int id): void&lt;br&gt;+ viewAll(): void&lt;br&gt;+ undo(): void&lt;br&gt;+ redo(): void&lt;/span&gt;&lt;/font&gt;&lt;br&gt;&lt;/div&gt;" style="text;strokeColor=none;fillColor=none;align=left;verticalAlign=top;spacingLeft=4;spacingRight=4;overflow=hidden;rotatable=0;points=[[0,0.5],[1,0.5]];portConstraint=eastwest;whiteSpace=wrap;html=1;" parent="N1wmeKVcwQzZcCEJc6FH-62" vertex="1">
          <mxGeometry y="78" width="510" height="112" as="geometry" />
        </mxCell>
        <mxCell id="N1wmeKVcwQzZcCEJc6FH-66" value="&lt;span style=&quot;padding: 0px 2px;&quot;&gt;&lt;span style=&quot;font-family: Consolas; font-size: 10pt; white-space: pre;&quot;&gt;&lt;font style=&quot;color: rgb(255, 255, 255);&quot;&gt;&lt;span&gt;&lt;/span&gt;&lt;span style=&quot;text-decoration-line: underline; text-decoration-style: solid; text-decoration-color: rgb(0, 102, 204);&quot;&gt;LostFoundItem&lt;/span&gt;&lt;/font&gt;&lt;/span&gt;&lt;/span&gt;" style="swimlane;fontStyle=1;align=center;verticalAlign=top;childLayout=stackLayout;horizontal=1;startSize=26;horizontalStack=0;resizeParent=1;resizeParentMax=0;resizeLast=0;collapsible=1;marginBottom=0;whiteSpace=wrap;html=1;" parent="1" vertex="1">
          <mxGeometry x="610" y="-231.01999999999998" width="530" height="240" as="geometry" />
        </mxCell>
        <mxCell id="N1wmeKVcwQzZcCEJc6FH-67" value="&lt;div style=&quot;padding: 0px 2px;&quot;&gt;&lt;div style=&quot;&quot;&gt;&lt;p style=&quot;margin: 0px;&quot;&gt;&lt;font face=&quot;Consolas&quot;&gt;&lt;span style=&quot;font-size: 13.3333px; white-space: pre;&quot;&gt;- idcounter: static int&lt;br/&gt;- id: int&lt;br/&gt;- description: String&lt;br/&gt;- date: String&lt;br/&gt;- location: String&lt;/span&gt;&lt;/font&gt;&lt;br&gt;&lt;/p&gt;&lt;/div&gt;&lt;/div&gt;" style="text;strokeColor=none;fillColor=none;align=left;verticalAlign=top;spacingLeft=4;spacingRight=4;overflow=hidden;rotatable=0;points=[[0,0.5],[1,0.5]];portConstraint=eastwest;whiteSpace=wrap;html=1;" parent="N1wmeKVcwQzZcCEJc6FH-66" vertex="1">
          <mxGeometry y="26" width="530" height="94" as="geometry" />
        </mxCell>
        <mxCell id="N1wmeKVcwQzZcCEJc6FH-68" value="" style="line;strokeWidth=1;fillColor=none;align=left;verticalAlign=middle;spacingTop=-1;spacingLeft=3;spacingRight=3;rotatable=0;labelPosition=right;points=[];portConstraint=eastwest;strokeColor=inherit;" parent="N1wmeKVcwQzZcCEJc6FH-66" vertex="1">
          <mxGeometry y="120" width="530" height="8" as="geometry" />
        </mxCell>
        <mxCell id="N1wmeKVcwQzZcCEJc6FH-69" value="&lt;font face=&quot;Consolas&quot; color=&quot;#f9faf4&quot;&gt;&lt;span style=&quot;font-size: 13.3333px; white-space: pre;&quot;&gt;+ LostFoundItem(String description, String date, String location): &lt;br&gt;+ getId(): int&lt;br&gt;+ setId(): void&lt;br&gt;+ matches(String desc, String date, String loc)&lt;/span&gt;&lt;/font&gt;&lt;div&gt;&lt;font face=&quot;Consolas&quot; color=&quot;#f9faf4&quot;&gt;&lt;span style=&quot;font-size: 13.3333px; white-space: pre;&quot;&gt;+ toString(): String&lt;/span&gt;&lt;/font&gt;&lt;/div&gt;" style="text;strokeColor=none;fillColor=none;align=left;verticalAlign=top;spacingLeft=4;spacingRight=4;overflow=hidden;rotatable=0;points=[[0,0.5],[1,0.5]];portConstraint=eastwest;whiteSpace=wrap;html=1;" parent="N1wmeKVcwQzZcCEJc6FH-66" vertex="1">
          <mxGeometry y="128" width="530" height="112" as="geometry" />
        </mxCell>
        <mxCell id="N1wmeKVcwQzZcCEJc6FH-70" value="&lt;font style=&quot;color: rgb(255, 255, 255);&quot;&gt;BookingRequest&lt;/font&gt;" style="swimlane;fontStyle=1;align=center;verticalAlign=top;childLayout=stackLayout;horizontal=1;startSize=26;horizontalStack=0;resizeParent=1;resizeParentMax=0;resizeLast=0;collapsible=1;marginBottom=0;whiteSpace=wrap;html=1;" parent="1" vertex="1">
          <mxGeometry x="-20" y="640" width="580" height="260" as="geometry" />
        </mxCell>
        <mxCell id="N1wmeKVcwQzZcCEJc6FH-71" value="&lt;div style=&quot;padding: 0px 2px;&quot;&gt;&lt;div style=&quot;&quot;&gt;&lt;p style=&quot;margin: 0px;&quot;&gt;&lt;font face=&quot;Consolas&quot;&gt;&lt;span style=&quot;font-size: 13.3333px; white-space: pre;&quot;&gt;- idcounter: static int&lt;br/&gt;- id: int&lt;br/&gt;- studentName: String&lt;br/&gt;- room: String&lt;br/&gt;- date: String&lt;br/&gt;- priority: int&lt;/span&gt;&lt;/font&gt;&lt;br&gt;&lt;/p&gt;&lt;/div&gt;&lt;/div&gt;" style="text;strokeColor=none;fillColor=none;align=left;verticalAlign=top;spacingLeft=4;spacingRight=4;overflow=hidden;rotatable=0;points=[[0,0.5],[1,0.5]];portConstraint=eastwest;whiteSpace=wrap;html=1;" parent="N1wmeKVcwQzZcCEJc6FH-70" vertex="1">
          <mxGeometry y="26" width="580" height="114" as="geometry" />
        </mxCell>
        <mxCell id="N1wmeKVcwQzZcCEJc6FH-72" value="" style="line;strokeWidth=1;fillColor=none;align=left;verticalAlign=middle;spacingTop=-1;spacingLeft=3;spacingRight=3;rotatable=0;labelPosition=right;points=[];portConstraint=eastwest;strokeColor=inherit;" parent="N1wmeKVcwQzZcCEJc6FH-70" vertex="1">
          <mxGeometry y="140" width="580" height="8" as="geometry" />
        </mxCell>
        <mxCell id="N1wmeKVcwQzZcCEJc6FH-73" value="&lt;font face=&quot;Consolas&quot; color=&quot;#f9faf4&quot;&gt;&lt;span style=&quot;font-size: 13.3333px; white-space: pre;&quot;&gt;+ BookingRequest(String studentName, String room, String date, int priority): &lt;br/&gt;+ getPriority(): int&lt;br/&gt;+ getId(): void&lt;br/&gt;+ toString(): String&lt;/span&gt;&lt;/font&gt;" style="text;strokeColor=none;fillColor=none;align=left;verticalAlign=top;spacingLeft=4;spacingRight=4;overflow=hidden;rotatable=0;points=[[0,0.5],[1,0.5]];portConstraint=eastwest;whiteSpace=wrap;html=1;" parent="N1wmeKVcwQzZcCEJc6FH-70" vertex="1">
          <mxGeometry y="148" width="580" height="112" as="geometry" />
        </mxCell>
        <mxCell id="N1wmeKVcwQzZcCEJc6FH-74" value="&lt;font face=&quot;Consolas&quot;&gt;&lt;span style=&quot;font-size: 13.3333px; white-space: pre;&quot;&gt;RoomBookingManager&lt;/span&gt;&lt;/font&gt;" style="swimlane;fontStyle=1;align=center;verticalAlign=top;childLayout=stackLayout;horizontal=1;startSize=26;horizontalStack=0;resizeParent=1;resizeParentMax=0;resizeLast=0;collapsible=1;marginBottom=0;whiteSpace=wrap;html=1;" parent="1" vertex="1">
          <mxGeometry x="-100" y="265" width="740" height="250" as="geometry" />
        </mxCell>
        <mxCell id="N1wmeKVcwQzZcCEJc6FH-75" value="&lt;div style=&quot;padding: 0px 2px;&quot;&gt;&lt;div style=&quot;&quot;&gt;&lt;p style=&quot;margin: 0px;&quot;&gt;&lt;font face=&quot;Consolas&quot;&gt;&lt;span style=&quot;font-size: 13.3333px; white-space: pre;&quot;&gt;- unsortedlist: ArrayList&amp;lt;BookingRequest&amp;gt;&lt;br/&gt;- queue: : LinkedQueue&amp;lt;BookingRequest&amp;gt;&lt;br/&gt;- undoRedo: UndoRedoManager&lt;/span&gt;&lt;/font&gt;&amp;nbsp;&lt;br&gt;&lt;/p&gt;&lt;/div&gt;&lt;/div&gt;" style="text;strokeColor=none;fillColor=none;align=left;verticalAlign=top;spacingLeft=4;spacingRight=4;overflow=hidden;rotatable=0;points=[[0,0.5],[1,0.5]];portConstraint=eastwest;whiteSpace=wrap;html=1;" parent="N1wmeKVcwQzZcCEJc6FH-74" vertex="1">
          <mxGeometry y="26" width="740" height="64" as="geometry" />
        </mxCell>
        <mxCell id="N1wmeKVcwQzZcCEJc6FH-76" value="" style="line;strokeWidth=1;fillColor=none;align=left;verticalAlign=middle;spacingTop=-1;spacingLeft=3;spacingRight=3;rotatable=0;labelPosition=right;points=[];portConstraint=eastwest;strokeColor=inherit;" parent="N1wmeKVcwQzZcCEJc6FH-74" vertex="1">
          <mxGeometry y="90" width="740" height="8" as="geometry" />
        </mxCell>
        <mxCell id="N1wmeKVcwQzZcCEJc6FH-77" value="&lt;div&gt;&lt;font face=&quot;Consolas&quot; color=&quot;#f9faf4&quot;&gt;&lt;span style=&quot;font-size: 13.3333px; white-space: pre;&quot;&gt;+ addRequest(String name, String room, String date, int priority): &lt;br/&gt;+ sortAndQueue(): void&lt;br/&gt;+ processNextRequest(): void&lt;br/&gt;+ viewQueue(): void&lt;br/&gt;+ viewUnsorted(): void&lt;br/&gt;+ mergeSort(ArrayList&amp;lt;BookingRequest&amp;gt; list): ArrayList&amp;lt;BookingRequest&amp;gt;&lt;br/&gt;+ merge(ArrayList&amp;lt;BookingRequest&amp;gt; left, ArrayList&amp;lt;BookingRequest&amp;gt; right): ArrayList&amp;lt;BookingRequest&amp;gt;&lt;br/&gt;+ undo(): void&lt;br/&gt;+ redo(): void&lt;/span&gt;&lt;/font&gt;&lt;br&gt;&lt;/div&gt;" style="text;strokeColor=none;fillColor=none;align=left;verticalAlign=top;spacingLeft=4;spacingRight=4;overflow=hidden;rotatable=0;points=[[0,0.5],[1,0.5]];portConstraint=eastwest;whiteSpace=wrap;html=1;" parent="N1wmeKVcwQzZcCEJc6FH-74" vertex="1">
          <mxGeometry y="98" width="740" height="152" as="geometry" />
        </mxCell>
        <mxCell id="N1wmeKVcwQzZcCEJc6FH-78" value="&lt;span style=&quot;background-color:#2f2f2f;padding:0px 2px 0px 2px;&quot;&gt;&lt;span style=&quot;font-family: Consolas; font-size: 10pt; white-space: pre;&quot;&gt;&lt;font style=&quot;color: rgb(255, 255, 255);&quot;&gt;RoomBookingMain&lt;/font&gt;&lt;/span&gt;&lt;/span&gt;" style="swimlane;fontStyle=0;childLayout=stackLayout;horizontal=1;startSize=26;fillColor=none;horizontalStack=0;resizeParent=1;resizeParentMax=0;resizeLast=0;collapsible=1;marginBottom=0;whiteSpace=wrap;html=1;" parent="1" vertex="1">
          <mxGeometry x="740" y="320" width="350" height="80" as="geometry" />
        </mxCell>
        <mxCell id="N1wmeKVcwQzZcCEJc6FH-79" value="+ Start(sc: scanner,manager :&amp;nbsp;&lt;span style=&quot;font-family: Consolas; font-size: 13.3333px; font-weight: 700; text-align: center; white-space: pre;&quot;&gt;RoomBookingManager&lt;/span&gt;): void" style="text;strokeColor=none;fillColor=none;align=left;verticalAlign=top;spacingLeft=4;spacingRight=4;overflow=hidden;rotatable=0;points=[[0,0.5],[1,0.5]];portConstraint=eastwest;whiteSpace=wrap;html=1;" parent="N1wmeKVcwQzZcCEJc6FH-78" vertex="1">
          <mxGeometry y="26" width="350" height="54" as="geometry" />
        </mxCell>
        <mxCell id="N1wmeKVcwQzZcCEJc6FH-84" value="&lt;font face=&quot;Consolas&quot;&gt;&lt;span style=&quot;font-size: 13.3333px; white-space: pre;&quot;&gt;Graph&lt;/span&gt;&lt;/font&gt;" style="swimlane;fontStyle=1;align=center;verticalAlign=top;childLayout=stackLayout;horizontal=1;startSize=26;horizontalStack=0;resizeParent=1;resizeParentMax=0;resizeLast=0;collapsible=1;marginBottom=0;whiteSpace=wrap;html=1;" parent="1" vertex="1">
          <mxGeometry x="1100" y="-950" width="740" height="230" as="geometry" />
        </mxCell>
        <mxCell id="N1wmeKVcwQzZcCEJc6FH-85" value="&lt;div style=&quot;padding: 0px 2px;&quot;&gt;&lt;div style=&quot;&quot;&gt;&lt;p style=&quot;margin: 0px;&quot;&gt;&lt;font face=&quot;Consolas&quot;&gt;&lt;span style=&quot;font-size: 13.3333px; white-space: pre;&quot;&gt;- costMatrix: int[][]&lt;br/&gt;- numberOfNodes: : int&lt;br/&gt;- INF: final int&lt;/span&gt;&lt;/font&gt;&amp;nbsp;&lt;br&gt;&lt;/p&gt;&lt;/div&gt;&lt;/div&gt;" style="text;strokeColor=none;fillColor=none;align=left;verticalAlign=top;spacingLeft=4;spacingRight=4;overflow=hidden;rotatable=0;points=[[0,0.5],[1,0.5]];portConstraint=eastwest;whiteSpace=wrap;html=1;" parent="N1wmeKVcwQzZcCEJc6FH-84" vertex="1">
          <mxGeometry y="26" width="740" height="64" as="geometry" />
        </mxCell>
        <mxCell id="N1wmeKVcwQzZcCEJc6FH-86" value="" style="line;strokeWidth=1;fillColor=none;align=left;verticalAlign=middle;spacingTop=-1;spacingLeft=3;spacingRight=3;rotatable=0;labelPosition=right;points=[];portConstraint=eastwest;strokeColor=inherit;" parent="N1wmeKVcwQzZcCEJc6FH-84" vertex="1">
          <mxGeometry y="90" width="740" height="8" as="geometry" />
        </mxCell>
        <mxCell id="N1wmeKVcwQzZcCEJc6FH-87" value="&lt;div&gt;&lt;font face=&quot;Consolas&quot; color=&quot;#f9faf4&quot;&gt;&lt;span style=&quot;font-size: 13.3333px; white-space: pre;&quot;&gt;+ Graph(int numberOfNodes): &lt;br/&gt;+ addEdge(int from, int neighbor, int cost): void&lt;br/&gt;+ isNeighbor(int i, int j): boolean&lt;br/&gt;+ dijkstra(int start, int end): void&lt;br/&gt;+ printPath(int[] prev, int node): void&lt;br/&gt;+ getName(int index): String&lt;br/&gt;+ printBuildings(): void&lt;br/&gt;&lt;br&gt;&lt;/span&gt;&lt;/font&gt;&lt;/div&gt;&lt;div&gt;&lt;br&gt;&lt;/div&gt;" style="text;strokeColor=none;fillColor=none;align=left;verticalAlign=top;spacingLeft=4;spacingRight=4;overflow=hidden;rotatable=0;points=[[0,0.5],[1,0.5]];portConstraint=eastwest;whiteSpace=wrap;html=1;" parent="N1wmeKVcwQzZcCEJc6FH-84" vertex="1">
          <mxGeometry y="98" width="740" height="132" as="geometry" />
        </mxCell>
        <mxCell id="N1wmeKVcwQzZcCEJc6FH-131" style="edgeStyle=orthogonalEdgeStyle;rounded=0;orthogonalLoop=1;jettySize=auto;html=1;entryX=0.5;entryY=0;entryDx=0;entryDy=0;" parent="1" source="N1wmeKVcwQzZcCEJc6FH-88" target="N1wmeKVcwQzZcCEJc6FH-98" edge="1">
          <mxGeometry relative="1" as="geometry" />
        </mxCell>
        <mxCell id="N1wmeKVcwQzZcCEJc6FH-88" value="&lt;span style=&quot;padding: 0px 2px;&quot;&gt;&lt;span style=&quot;font-family: Consolas; font-size: 10pt; white-space: pre;&quot;&gt;&lt;font style=&quot;color: rgb(255, 255, 255);&quot;&gt;&lt;span&gt;&lt;/span&gt;&lt;span style=&quot;text-decoration-line: underline; text-decoration-style: solid; text-decoration-color: rgb(0, 102, 204);&quot;&gt;StudentHelpMain&lt;/span&gt;&lt;/font&gt;&lt;/span&gt;&lt;/span&gt;" style="swimlane;fontStyle=0;childLayout=stackLayout;horizontal=1;startSize=26;fillColor=none;horizontalStack=0;resizeParent=1;resizeParentMax=0;resizeLast=0;collapsible=1;marginBottom=0;whiteSpace=wrap;html=1;" parent="1" vertex="1">
          <mxGeometry x="1140" y="-590" width="350" height="80" as="geometry" />
        </mxCell>
        <mxCell id="N1wmeKVcwQzZcCEJc6FH-89" value="+ Start(sc: scanner,&lt;span style=&quot;font-family: Consolas; font-size: 13.3333px; font-weight: 700; text-align: center; white-space: pre;&quot;&gt;Graph&lt;/span&gt;: g&lt;span style=&quot;font-family: Consolas; font-size: 13.3333px; font-weight: 700; text-align: center; white-space: pre;&quot;&gt;raph&lt;/span&gt;): void" style="text;strokeColor=none;fillColor=none;align=left;verticalAlign=top;spacingLeft=4;spacingRight=4;overflow=hidden;rotatable=0;points=[[0,0.5],[1,0.5]];portConstraint=eastwest;whiteSpace=wrap;html=1;" parent="N1wmeKVcwQzZcCEJc6FH-88" vertex="1">
          <mxGeometry y="26" width="350" height="54" as="geometry" />
        </mxCell>
        <mxCell id="N1wmeKVcwQzZcCEJc6FH-90" value="&lt;font style=&quot;color: rgb(255, 255, 255);&quot;&gt;Action&lt;/font&gt;" style="swimlane;fontStyle=1;align=center;verticalAlign=top;childLayout=stackLayout;horizontal=1;startSize=26;horizontalStack=0;resizeParent=1;resizeParentMax=0;resizeLast=0;collapsible=1;marginBottom=0;whiteSpace=wrap;html=1;" parent="1" vertex="1">
          <mxGeometry x="-1110" y="870" width="580" height="150" as="geometry" />
        </mxCell>
        <mxCell id="N1wmeKVcwQzZcCEJc6FH-91" value="&lt;div style=&quot;padding: 0px 2px;&quot;&gt;&lt;div style=&quot;&quot;&gt;&lt;p style=&quot;margin: 0px;&quot;&gt;&lt;font face=&quot;Consolas&quot;&gt;&lt;span style=&quot;font-size: 13.3333px; white-space: pre;&quot;&gt;- type: String&lt;br/&gt;- data: Object&lt;/span&gt;&lt;/font&gt;&lt;br&gt;&lt;/p&gt;&lt;/div&gt;&lt;/div&gt;" style="text;strokeColor=none;fillColor=none;align=left;verticalAlign=top;spacingLeft=4;spacingRight=4;overflow=hidden;rotatable=0;points=[[0,0.5],[1,0.5]];portConstraint=eastwest;whiteSpace=wrap;html=1;" parent="N1wmeKVcwQzZcCEJc6FH-90" vertex="1">
          <mxGeometry y="26" width="580" height="54" as="geometry" />
        </mxCell>
        <mxCell id="N1wmeKVcwQzZcCEJc6FH-92" value="" style="line;strokeWidth=1;fillColor=none;align=left;verticalAlign=middle;spacingTop=-1;spacingLeft=3;spacingRight=3;rotatable=0;labelPosition=right;points=[];portConstraint=eastwest;strokeColor=inherit;" parent="N1wmeKVcwQzZcCEJc6FH-90" vertex="1">
          <mxGeometry y="80" width="580" height="8" as="geometry" />
        </mxCell>
        <mxCell id="N1wmeKVcwQzZcCEJc6FH-93" value="&lt;div&gt;&lt;font face=&quot;Consolas&quot; color=&quot;#f9faf4&quot;&gt;&lt;span style=&quot;font-size: 13.3333px; white-space: pre;&quot;&gt;+ Action(String type, Object data): &lt;br/&gt;+ getType(): String&lt;br/&gt;+ getData(): Object&lt;/span&gt;&lt;/font&gt;&lt;/div&gt;" style="text;strokeColor=none;fillColor=none;align=left;verticalAlign=top;spacingLeft=4;spacingRight=4;overflow=hidden;rotatable=0;points=[[0,0.5],[1,0.5]];portConstraint=eastwest;whiteSpace=wrap;html=1;" parent="N1wmeKVcwQzZcCEJc6FH-90" vertex="1">
          <mxGeometry y="88" width="580" height="62" as="geometry" />
        </mxCell>
        <mxCell id="N1wmeKVcwQzZcCEJc6FH-94" value="&lt;span style=&quot;padding: 0px 2px;&quot;&gt;&lt;span style=&quot;font-family: Consolas; font-size: 10pt; white-space: pre;&quot;&gt;&lt;font style=&quot;color: rgb(255, 255, 255);&quot;&gt;&lt;span&gt;&lt;/span&gt;&lt;span style=&quot;text-decoration-color: rgb(0, 102, 204);&quot;&gt;UndoRedoManager&lt;/span&gt;&lt;/font&gt;&lt;/span&gt;&lt;/span&gt;" style="swimlane;fontStyle=1;align=center;verticalAlign=top;childLayout=stackLayout;horizontal=1;startSize=26;horizontalStack=0;resizeParent=1;resizeParentMax=0;resizeLast=0;collapsible=1;marginBottom=0;whiteSpace=wrap;html=1;" parent="1" vertex="1">
          <mxGeometry x="-1110" y="550" width="740" height="210" as="geometry" />
        </mxCell>
        <mxCell id="N1wmeKVcwQzZcCEJc6FH-95" value="&lt;div style=&quot;padding: 0px 2px;&quot;&gt;&lt;div style=&quot;&quot;&gt;&lt;p style=&quot;margin: 0px;&quot;&gt;&lt;font face=&quot;Consolas&quot;&gt;&lt;span style=&quot;font-size: 13.3333px; white-space: pre;&quot;&gt;- undoStack: ArrayStack&amp;lt;Action&amp;gt;&lt;br/&gt;- redoStack: : ArrayStack&amp;lt;Action&amp;gt;&lt;/span&gt;&lt;/font&gt;&lt;br&gt;&lt;/p&gt;&lt;/div&gt;&lt;/div&gt;" style="text;strokeColor=none;fillColor=none;align=left;verticalAlign=top;spacingLeft=4;spacingRight=4;overflow=hidden;rotatable=0;points=[[0,0.5],[1,0.5]];portConstraint=eastwest;whiteSpace=wrap;html=1;" parent="N1wmeKVcwQzZcCEJc6FH-94" vertex="1">
          <mxGeometry y="26" width="740" height="44" as="geometry" />
        </mxCell>
        <mxCell id="N1wmeKVcwQzZcCEJc6FH-96" value="" style="line;strokeWidth=1;fillColor=none;align=left;verticalAlign=middle;spacingTop=-1;spacingLeft=3;spacingRight=3;rotatable=0;labelPosition=right;points=[];portConstraint=eastwest;strokeColor=inherit;" parent="N1wmeKVcwQzZcCEJc6FH-94" vertex="1">
          <mxGeometry y="70" width="740" height="8" as="geometry" />
        </mxCell>
        <mxCell id="N1wmeKVcwQzZcCEJc6FH-97" value="&lt;div&gt;&lt;font face=&quot;Consolas&quot; color=&quot;#f9faf4&quot;&gt;&lt;span style=&quot;font-size: 13.3333px; white-space: pre;&quot;&gt;+ UndoRedoManager(int numberOfNodes): &lt;br/&gt;+ recordAction((Action action): void&lt;br/&gt;+ undo(): Action&lt;br/&gt;+ redo(): Action&lt;br/&gt;+ canUndo(): boolean&lt;br/&gt;+ canRedo(): boolean&lt;/span&gt;&lt;/font&gt;&lt;/div&gt;" style="text;strokeColor=none;fillColor=none;align=left;verticalAlign=top;spacingLeft=4;spacingRight=4;overflow=hidden;rotatable=0;points=[[0,0.5],[1,0.5]];portConstraint=eastwest;whiteSpace=wrap;html=1;" parent="N1wmeKVcwQzZcCEJc6FH-94" vertex="1">
          <mxGeometry y="78" width="740" height="132" as="geometry" />
        </mxCell>
        <mxCell id="N1wmeKVcwQzZcCEJc6FH-98" value="&lt;span style=&quot;padding: 0px 2px;&quot;&gt;&lt;span style=&quot;font-family: Consolas; font-size: 10pt; white-space: pre;&quot;&gt;&lt;font style=&quot;color: rgb(255, 255, 255);&quot;&gt;&lt;span&gt;&lt;/span&gt;&lt;span style=&quot;text-decoration-color: rgb(0, 102, 204);&quot;&gt;Main&lt;/span&gt;&lt;/font&gt;&lt;/span&gt;&lt;/span&gt;" style="swimlane;fontStyle=0;childLayout=stackLayout;horizontal=1;startSize=26;fillColor=none;horizontalStack=0;resizeParent=1;resizeParentMax=0;resizeLast=0;collapsible=1;marginBottom=0;whiteSpace=wrap;html=1;" parent="1" vertex="1">
          <mxGeometry x="1150" y="630" width="350" height="80" as="geometry" />
        </mxCell>
        <mxCell id="N1wmeKVcwQzZcCEJc6FH-99" value="+ main" style="text;strokeColor=none;fillColor=none;align=left;verticalAlign=top;spacingLeft=4;spacingRight=4;overflow=hidden;rotatable=0;points=[[0,0.5],[1,0.5]];portConstraint=eastwest;whiteSpace=wrap;html=1;" parent="N1wmeKVcwQzZcCEJc6FH-98" vertex="1">
          <mxGeometry y="26" width="350" height="54" as="geometry" />
        </mxCell>
        <mxCell id="N1wmeKVcwQzZcCEJc6FH-100" value="" style="endArrow=diamondThin;endFill=1;endSize=24;html=1;rounded=0;entryX=0;entryY=0.5;entryDx=0;entryDy=0;exitX=1;exitY=0.5;exitDx=0;exitDy=0;" parent="1" source="N1wmeKVcwQzZcCEJc6FH-22" target="N1wmeKVcwQzZcCEJc6FH-14" edge="1">
          <mxGeometry width="160" relative="1" as="geometry">
            <mxPoint x="-600" y="-20" as="sourcePoint" />
            <mxPoint x="-40" y="-390" as="targetPoint" />
          </mxGeometry>
        </mxCell>
        <mxCell id="N1wmeKVcwQzZcCEJc6FH-101" value="" style="endArrow=diamondThin;endFill=1;endSize=24;html=1;rounded=0;exitX=0.75;exitY=0;exitDx=0;exitDy=0;entryX=0.25;entryY=0;entryDx=0;entryDy=0;" parent="1" source="N1wmeKVcwQzZcCEJc6FH-15" target="N1wmeKVcwQzZcCEJc6FH-11" edge="1">
          <mxGeometry width="160" relative="1" as="geometry">
            <mxPoint x="-580" y="-180" as="sourcePoint" />
            <mxPoint x="-420" y="-180" as="targetPoint" />
            <Array as="points">
              <mxPoint x="-430" y="-390" />
            </Array>
          </mxGeometry>
        </mxCell>
        <mxCell id="N1wmeKVcwQzZcCEJc6FH-102" value="Use" style="endArrow=open;endSize=12;dashed=1;html=1;rounded=0;exitX=0.25;exitY=0;exitDx=0;exitDy=0;entryX=0.39;entryY=1.207;entryDx=0;entryDy=0;entryPerimeter=0;" parent="1" source="N1wmeKVcwQzZcCEJc6FH-7" target="N1wmeKVcwQzZcCEJc6FH-4" edge="1">
          <mxGeometry width="160" relative="1" as="geometry">
            <mxPoint x="610" y="-530" as="sourcePoint" />
            <mxPoint x="770" y="-530" as="targetPoint" />
          </mxGeometry>
        </mxCell>
        <mxCell id="N1wmeKVcwQzZcCEJc6FH-103" value="Use" style="endArrow=open;endSize=12;dashed=1;html=1;rounded=0;exitX=0.25;exitY=0;exitDx=0;exitDy=0;" parent="1" source="N1wmeKVcwQzZcCEJc6FH-31" target="N1wmeKVcwQzZcCEJc6FH-30" edge="1">
          <mxGeometry width="160" relative="1" as="geometry">
            <mxPoint x="1576" y="-222" as="sourcePoint" />
            <mxPoint x="1575" y="-321" as="targetPoint" />
          </mxGeometry>
        </mxCell>
        <mxCell id="N1wmeKVcwQzZcCEJc6FH-104" value="" style="endArrow=diamondThin;endFill=1;endSize=24;html=1;rounded=0;exitX=1;exitY=0.5;exitDx=0;exitDy=0;entryX=0;entryY=0.5;entryDx=0;entryDy=0;" parent="1" source="N1wmeKVcwQzZcCEJc6FH-24" target="N1wmeKVcwQzZcCEJc6FH-8" edge="1">
          <mxGeometry width="160" relative="1" as="geometry">
            <mxPoint x="680" y="30" as="sourcePoint" />
            <mxPoint x="840" y="30" as="targetPoint" />
          </mxGeometry>
        </mxCell>
        <mxCell id="N1wmeKVcwQzZcCEJc6FH-105" value="Use" style="endArrow=open;endSize=12;dashed=1;html=1;rounded=0;exitX=0.481;exitY=-0.007;exitDx=0;exitDy=0;exitPerimeter=0;" parent="1" source="N1wmeKVcwQzZcCEJc6FH-42" target="N1wmeKVcwQzZcCEJc6FH-18" edge="1">
          <mxGeometry width="160" relative="1" as="geometry">
            <mxPoint x="-1180" y="-65" as="sourcePoint" />
            <mxPoint x="-1020" y="-65" as="targetPoint" />
          </mxGeometry>
        </mxCell>
        <mxCell id="N1wmeKVcwQzZcCEJc6FH-106" value="Use" style="endArrow=open;endSize=12;dashed=1;html=1;rounded=0;exitX=0;exitY=0.5;exitDx=0;exitDy=0;" parent="1" source="N1wmeKVcwQzZcCEJc6FH-43" target="N1wmeKVcwQzZcCEJc6FH-47" edge="1">
          <mxGeometry width="160" relative="1" as="geometry">
            <mxPoint x="-1410" y="125" as="sourcePoint" />
            <mxPoint x="-1250" y="125" as="targetPoint" />
          </mxGeometry>
        </mxCell>
        <mxCell id="N1wmeKVcwQzZcCEJc6FH-107" value="Use" style="endArrow=open;endSize=12;dashed=1;html=1;rounded=0;exitX=0.5;exitY=0;exitDx=0;exitDy=0;entryX=0.365;entryY=1.011;entryDx=0;entryDy=0;entryPerimeter=0;" parent="1" source="N1wmeKVcwQzZcCEJc6FH-35" target="N1wmeKVcwQzZcCEJc6FH-45" edge="1">
          <mxGeometry width="160" relative="1" as="geometry">
            <mxPoint x="-1150" y="245" as="sourcePoint" />
            <mxPoint x="-1280" y="245" as="targetPoint" />
          </mxGeometry>
        </mxCell>
        <mxCell id="N1wmeKVcwQzZcCEJc6FH-108" value="Use" style="endArrow=open;endSize=12;dashed=1;html=1;rounded=0;exitX=0.5;exitY=0;exitDx=0;exitDy=0;entryX=0.466;entryY=1.066;entryDx=0;entryDy=0;entryPerimeter=0;" parent="1" source="N1wmeKVcwQzZcCEJc6FH-56" target="N1wmeKVcwQzZcCEJc6FH-34" edge="1">
          <mxGeometry width="160" relative="1" as="geometry">
            <mxPoint x="1595" y="30" as="sourcePoint" />
            <mxPoint x="1755" y="30" as="targetPoint" />
          </mxGeometry>
        </mxCell>
        <mxCell id="N1wmeKVcwQzZcCEJc6FH-109" value="Use" style="endArrow=open;endSize=12;dashed=1;html=1;rounded=0;exitX=1;exitY=0.5;exitDx=0;exitDy=0;entryX=0;entryY=0.5;entryDx=0;entryDy=0;" parent="1" source="N1wmeKVcwQzZcCEJc6FH-57" target="N1wmeKVcwQzZcCEJc6FH-51" edge="1">
          <mxGeometry width="160" relative="1" as="geometry">
            <mxPoint x="2270" y="210" as="sourcePoint" />
            <mxPoint x="2170" y="210" as="targetPoint" />
          </mxGeometry>
        </mxCell>
        <mxCell id="N1wmeKVcwQzZcCEJc6FH-110" value="Use" style="endArrow=open;endSize=12;dashed=1;html=1;rounded=0;exitX=0.5;exitY=0;exitDx=0;exitDy=0;entryX=0.438;entryY=1.019;entryDx=0;entryDy=0;entryPerimeter=0;" parent="1" source="N1wmeKVcwQzZcCEJc6FH-54" target="N1wmeKVcwQzZcCEJc6FH-59" edge="1">
          <mxGeometry width="160" relative="1" as="geometry">
            <mxPoint x="1970" y="325" as="sourcePoint" />
            <mxPoint x="1870" y="325" as="targetPoint" />
          </mxGeometry>
        </mxCell>
        <mxCell id="N1wmeKVcwQzZcCEJc6FH-111" value="Use" style="endArrow=open;endSize=12;dashed=1;html=1;rounded=0;exitX=0.5;exitY=0;exitDx=0;exitDy=0;" parent="1" source="N1wmeKVcwQzZcCEJc6FH-62" target="N1wmeKVcwQzZcCEJc6FH-10" edge="1">
          <mxGeometry width="160" relative="1" as="geometry">
            <mxPoint x="350" y="-171.01999999999998" as="sourcePoint" />
            <mxPoint x="427.46000000000004" y="-569.9960000000001" as="targetPoint" />
          </mxGeometry>
        </mxCell>
        <mxCell id="N1wmeKVcwQzZcCEJc6FH-113" value="Use" style="endArrow=open;endSize=12;dashed=1;html=1;rounded=0;exitX=1;exitY=0.5;exitDx=0;exitDy=0;entryX=0;entryY=0.5;entryDx=0;entryDy=0;" parent="1" source="N1wmeKVcwQzZcCEJc6FH-63" target="N1wmeKVcwQzZcCEJc6FH-67" edge="1">
          <mxGeometry width="160" relative="1" as="geometry">
            <mxPoint x="768" y="197.98000000000002" as="sourcePoint" />
            <mxPoint x="760" y="8.980000000000018" as="targetPoint" />
          </mxGeometry>
        </mxCell>
        <mxCell id="N1wmeKVcwQzZcCEJc6FH-114" value="Use" style="endArrow=open;endSize=12;dashed=1;html=1;rounded=0;exitX=0.481;exitY=0.01;exitDx=0;exitDy=0;entryX=0.551;entryY=1.011;entryDx=0;entryDy=0;exitPerimeter=0;entryPerimeter=0;" parent="1" source="N1wmeKVcwQzZcCEJc6FH-60" target="N1wmeKVcwQzZcCEJc6FH-65" edge="1">
          <mxGeometry width="160" relative="1" as="geometry">
            <mxPoint x="400" y="58.98000000000002" as="sourcePoint" />
            <mxPoint x="530" y="83.98000000000002" as="targetPoint" />
          </mxGeometry>
        </mxCell>
        <mxCell id="N1wmeKVcwQzZcCEJc6FH-115" value="Use" style="endArrow=open;endSize=12;dashed=1;html=1;rounded=0;exitX=0.25;exitY=0;exitDx=0;exitDy=0;entryX=0.533;entryY=1.056;entryDx=0;entryDy=0;entryPerimeter=0;" parent="1" source="N1wmeKVcwQzZcCEJc6FH-74" target="N1wmeKVcwQzZcCEJc6FH-26" edge="1">
          <mxGeometry width="160" relative="1" as="geometry">
            <mxPoint x="-100" y="180" as="sourcePoint" />
            <mxPoint x="60" y="180" as="targetPoint" />
          </mxGeometry>
        </mxCell>
        <mxCell id="N1wmeKVcwQzZcCEJc6FH-116" value="Use" style="endArrow=open;endSize=12;dashed=1;html=1;rounded=0;exitX=0.003;exitY=0.772;exitDx=0;exitDy=0;entryX=0.588;entryY=1.002;entryDx=0;entryDy=0;entryPerimeter=0;exitPerimeter=0;" parent="1" source="N1wmeKVcwQzZcCEJc6FH-77" target="N1wmeKVcwQzZcCEJc6FH-14" edge="1">
          <mxGeometry width="160" relative="1" as="geometry">
            <mxPoint x="-210" y="850" as="sourcePoint" />
            <mxPoint x="-470" y="310" as="targetPoint" />
          </mxGeometry>
        </mxCell>
        <mxCell id="N1wmeKVcwQzZcCEJc6FH-118" value="Use" style="endArrow=open;endSize=12;dashed=1;html=1;rounded=0;exitX=0.25;exitY=0;exitDx=0;exitDy=0;entryX=0.299;entryY=0.988;entryDx=0;entryDy=0;entryPerimeter=0;" parent="1" source="N1wmeKVcwQzZcCEJc6FH-70" target="N1wmeKVcwQzZcCEJc6FH-77" edge="1">
          <mxGeometry width="160" relative="1" as="geometry">
            <mxPoint x="-50" y="610" as="sourcePoint" />
            <mxPoint x="-230" y="520" as="targetPoint" />
          </mxGeometry>
        </mxCell>
        <mxCell id="N1wmeKVcwQzZcCEJc6FH-119" value="Use" style="endArrow=open;endSize=12;dashed=1;html=1;rounded=0;exitX=-0.005;exitY=0.238;exitDx=0;exitDy=0;exitPerimeter=0;" parent="1" source="N1wmeKVcwQzZcCEJc6FH-79" target="N1wmeKVcwQzZcCEJc6FH-77" edge="1">
          <mxGeometry width="160" relative="1" as="geometry">
            <mxPoint x="710" y="560" as="sourcePoint" />
            <mxPoint x="870" y="560" as="targetPoint" />
          </mxGeometry>
        </mxCell>
        <mxCell id="N1wmeKVcwQzZcCEJc6FH-121" value="Use" style="endArrow=open;endSize=12;dashed=1;html=1;rounded=0;exitX=0.423;exitY=-0.05;exitDx=0;exitDy=0;exitPerimeter=0;" parent="1" source="N1wmeKVcwQzZcCEJc6FH-88" target="N1wmeKVcwQzZcCEJc6FH-87" edge="1">
          <mxGeometry width="160" relative="1" as="geometry">
            <mxPoint x="1090" y="-720" as="sourcePoint" />
            <mxPoint x="880" y="-745" as="targetPoint" />
          </mxGeometry>
        </mxCell>
        <mxCell id="N1wmeKVcwQzZcCEJc6FH-122" value="Use" style="endArrow=open;endSize=12;dashed=1;html=1;rounded=0;exitX=0.488;exitY=-0.005;exitDx=0;exitDy=0;exitPerimeter=0;entryX=0.423;entryY=1.012;entryDx=0;entryDy=0;entryPerimeter=0;" parent="1" source="N1wmeKVcwQzZcCEJc6FH-94" target="N1wmeKVcwQzZcCEJc6FH-22" edge="1">
          <mxGeometry width="160" relative="1" as="geometry">
            <mxPoint x="-790" y="460" as="sourcePoint" />
            <mxPoint x="-630" y="460" as="targetPoint" />
          </mxGeometry>
        </mxCell>
        <mxCell id="N1wmeKVcwQzZcCEJc6FH-123" value="Use" style="endArrow=open;endSize=12;dashed=1;html=1;rounded=0;exitX=0.449;exitY=1.013;exitDx=0;exitDy=0;exitPerimeter=0;entryX=0.5;entryY=0;entryDx=0;entryDy=0;" parent="1" source="N1wmeKVcwQzZcCEJc6FH-97" target="N1wmeKVcwQzZcCEJc6FH-90" edge="1">
          <mxGeometry width="160" relative="1" as="geometry">
            <mxPoint x="-480" y="900" as="sourcePoint" />
            <mxPoint x="-450" y="683" as="targetPoint" />
          </mxGeometry>
        </mxCell>
        <mxCell id="N1wmeKVcwQzZcCEJc6FH-124" value="Use" style="endArrow=open;endSize=12;dashed=1;html=1;rounded=0;exitX=0.595;exitY=0.993;exitDx=0;exitDy=0;exitPerimeter=0;entryX=0.182;entryY=-0.014;entryDx=0;entryDy=0;entryPerimeter=0;" parent="1" source="N1wmeKVcwQzZcCEJc6FH-45" target="N1wmeKVcwQzZcCEJc6FH-94" edge="1">
          <mxGeometry width="160" relative="1" as="geometry">
            <mxPoint x="-1010" y="487" as="sourcePoint" />
            <mxPoint x="-980" y="270" as="targetPoint" />
          </mxGeometry>
        </mxCell>
        <mxCell id="N1wmeKVcwQzZcCEJc6FH-125" value="Use" style="endArrow=open;endSize=12;dashed=1;html=1;rounded=0;exitX=0.006;exitY=1.011;exitDx=0;exitDy=0;exitPerimeter=0;entryX=1.005;entryY=0.017;entryDx=0;entryDy=0;entryPerimeter=0;" parent="1" source="N1wmeKVcwQzZcCEJc6FH-77" target="N1wmeKVcwQzZcCEJc6FH-97" edge="1">
          <mxGeometry width="160" relative="1" as="geometry">
            <mxPoint x="-250" y="460" as="sourcePoint" />
            <mxPoint x="-181" y="813" as="targetPoint" />
          </mxGeometry>
        </mxCell>
        <mxCell id="N1wmeKVcwQzZcCEJc6FH-126" value="Use" style="endArrow=open;endSize=12;dashed=1;html=1;rounded=0;exitX=0.5;exitY=0;exitDx=0;exitDy=0;entryX=0;entryY=0.5;entryDx=0;entryDy=0;edgeStyle=orthogonalEdgeStyle;elbow=vertical;" parent="1" source="N1wmeKVcwQzZcCEJc6FH-62" target="N1wmeKVcwQzZcCEJc6FH-97" edge="1">
          <mxGeometry width="160" relative="1" as="geometry">
            <mxPoint x="197" y="-390" as="sourcePoint" />
            <mxPoint x="190" y="-500" as="targetPoint" />
            <Array as="points">
              <mxPoint x="225" y="-530" />
              <mxPoint x="-1950" y="-530" />
              <mxPoint x="-1950" y="694" />
            </Array>
          </mxGeometry>
        </mxCell>
        <mxCell id="N1wmeKVcwQzZcCEJc6FH-127" value="Use" style="endArrow=open;endSize=12;dashed=1;html=1;rounded=0;edgeStyle=orthogonalEdgeStyle;" parent="1" source="N1wmeKVcwQzZcCEJc6FH-59" target="N1wmeKVcwQzZcCEJc6FH-97" edge="1">
          <mxGeometry width="160" relative="1" as="geometry">
            <mxPoint x="1660" y="363" as="sourcePoint" />
            <mxPoint x="-300" y="850" as="targetPoint" />
            <Array as="points">
              <mxPoint x="1950" y="1040" />
              <mxPoint x="-300" y="1040" />
              <mxPoint x="-300" y="694" />
            </Array>
          </mxGeometry>
        </mxCell>
        <mxCell id="N1wmeKVcwQzZcCEJc6FH-128" style="edgeStyle=orthogonalEdgeStyle;rounded=0;orthogonalLoop=1;jettySize=auto;html=1;entryX=0.5;entryY=0;entryDx=0;entryDy=0;" parent="1" source="N1wmeKVcwQzZcCEJc6FH-61" target="N1wmeKVcwQzZcCEJc6FH-98" edge="1">
          <mxGeometry relative="1" as="geometry" />
        </mxCell>
        <mxCell id="N1wmeKVcwQzZcCEJc6FH-129" style="edgeStyle=orthogonalEdgeStyle;rounded=0;orthogonalLoop=1;jettySize=auto;html=1;entryX=0.5;entryY=0;entryDx=0;entryDy=0;" parent="1" source="N1wmeKVcwQzZcCEJc6FH-79" target="N1wmeKVcwQzZcCEJc6FH-98" edge="1">
          <mxGeometry relative="1" as="geometry" />
        </mxCell>
        <mxCell id="N1wmeKVcwQzZcCEJc6FH-130" style="edgeStyle=orthogonalEdgeStyle;rounded=0;orthogonalLoop=1;jettySize=auto;html=1;entryX=0.5;entryY=0;entryDx=0;entryDy=0;" parent="1" source="N1wmeKVcwQzZcCEJc6FH-55" target="N1wmeKVcwQzZcCEJc6FH-98" edge="1">
          <mxGeometry relative="1" as="geometry" />
        </mxCell>
        <mxCell id="N1wmeKVcwQzZcCEJc6FH-132" style="edgeStyle=orthogonalEdgeStyle;rounded=0;orthogonalLoop=1;jettySize=auto;html=1;entryX=0.513;entryY=1.085;entryDx=0;entryDy=0;entryPerimeter=0;" parent="1" source="N1wmeKVcwQzZcCEJc6FH-35" target="N1wmeKVcwQzZcCEJc6FH-99" edge="1">
          <mxGeometry relative="1" as="geometry">
            <Array as="points">
              <mxPoint x="-1285" y="1080" />
              <mxPoint x="1330" y="1080" />
            </Array>
          </mxGeometry>
        </mxCell>
      </root>
    </mxGraphModel>
  </diagram>
</mxfile>
